<?xml version="1.0" encoding="UTF-8" standalone="no"?>
<!-- Created with Inkscape (http://www.inkscape.org/) -->

<svg
   xmlns:dc="http://purl.org/dc/elements/1.1/"
   xmlns:cc="http://creativecommons.org/ns#"
   xmlns:rdf="http://www.w3.org/1999/02/22-rdf-syntax-ns#"
   xmlns:svg="http://www.w3.org/2000/svg"
   xmlns="http://www.w3.org/2000/svg"
   xmlns:sodipodi="http://sodipodi.sourceforge.net/DTD/sodipodi-0.dtd"
   xmlns:inkscape="http://www.inkscape.org/namespaces/inkscape"
   version="1.1"
   width="19.999166"
   height="10"
   id="svg2"
   inkscape:version="0.48.3.1 r9886"
   sodipodi:docname="automotive.svg">
  <sodipodi:namedview
     pagecolor="#ffffff"
     bordercolor="#666666"
     borderopacity="1"
     objecttolerance="10"
     gridtolerance="10"
     guidetolerance="10"
     inkscape:pageopacity="0"
     inkscape:pageshadow="2"
     inkscape:window-width="1280"
     inkscape:window-height="800"
     id="namedview9"
     showgrid="false"
     fit-margin-top="0"
     fit-margin-left="0"
     fit-margin-right="0"
     fit-margin-bottom="0"
     inkscape:zoom="15.625"
     inkscape:cx="12"
     inkscape:cy="6.0002501"
     inkscape:window-x="0"
     inkscape:window-y="0"
     inkscape:window-maximized="0"
     inkscape:current-layer="svg2" />
  <path
     d="m -5363.8255,-1745.033 10136,0 m -5067.99996,-4686 0,9372"
     id="path8"
     style="fill-rule:nonzero;stroke:#0000ff;stroke-dasharray:5, 5"
     inkscape:connector-curvature="0" />
  <path
     d="m -295.82546,-3214.033 m 0,1922 2047.99996,0 0,-1922 -2047.99996,0"
     id="path10"
     style="fill:none;stroke:#0000ff;stroke-dasharray:10, 16"
     inkscape:connector-curvature="0" />
  <path
     d="m 3.7695263,6.6044748 q 0.3543185,0 0.6594225,0.1378276 0.3051039,0.1279113 0.5314778,0.3542352 0.2263656,0.2264073 0.3543103,0.5413942 0.1377942,0.3050706 0.1377942,0.6593892 0,0.354319 -0.1377942,0.669222 Q 5.1867922,9.271697 4.9604266,9.507854 4.7340527,9.734261 4.4289488,9.872089 4.1238448,10 3.7695263,10 3.415216,10 3.1002625,9.872089 2.7951585,9.734261 2.568793,9.507854 2.3424191,9.271697 2.2046331,8.966543 2.0766885,8.65164 2.0766885,8.297321 q 0,-0.3543186 0.1279446,-0.6593892 Q 2.3424191,7.3229449 2.568793,7.0965376 2.7951585,6.8702137 3.1002625,6.7423024 3.415216,6.6044748 3.7695263,6.6044748 z m 11.3577937,0 q 0.344477,0 0.649581,0.1378276 0.305104,0.1279113 0.531478,0.3542352 0.226365,0.2264073 0.35431,0.5413942 0.137794,0.3050706 0.137794,0.6593892 0,0.354319 -0.137794,0.669222 -0.127945,0.305154 -0.35431,0.541311 Q 16.082005,9.734261 15.776901,9.872089 15.471797,10 15.12732,10 14.773009,10 14.458056,9.872089 14.152952,9.734261 13.916745,9.507854 13.690371,9.271697 13.552585,8.966543 13.424641,8.65164 13.424641,8.297321 q 0,-0.3543186 0.127944,-0.6593892 0.137786,-0.3149869 0.36416,-0.5413942 0.236207,-0.2263239 0.541311,-0.3542352 0.314953,-0.1378276 0.669264,-0.1378276 z m 3.976217,-2.7065539 q 0.374001,0.098413 0.629891,0.3641515 0.265739,0.2657389 0.265739,0.6102246 l 0,2.1455773 q 0,0.4428982 -0.324787,0.7283029 -0.324795,0.2755718 -0.836582,0.2755718 l -1.171209,0 Q 17.607508,7.5493521 17.381167,7.1359527 17.164643,6.7127203 16.820166,6.3978168 16.485538,6.0828299 16.04264,5.9056706 15.609583,5.7186784 15.12732,5.7186784 q -0.492105,0 -0.925153,0.1869922 -0.433057,0.1771593 -0.777526,0.4921462 -0.334636,0.3149035 -0.561002,0.7381359 -0.216524,0.4133994 -0.27558,0.8857963 l -6.2792635,0 Q 6.2497146,7.5493521 6.023374,7.1359527 5.8068414,6.7127203 5.4623724,6.3978168 5.1277363,6.0828299 4.6848465,5.9056706 4.2517895,5.7186784 3.7695263,5.7186784 q -0.4921045,0 -0.9350027,0.1771593 Q 2.3916337,6.072997 2.0471564,6.3780676 1.7125286,6.6832215 1.4861547,7.1064539 1.2696304,7.51977 1.2105829,8.002083 0.96452648,7.9920837 0.73816091,7.9229199 0.52162827,7.8437565 0.35431857,7.7161785 0.1968418,7.5784342 0.0984209,7.4012749 0,7.2241157 0,7.0174576 L 0,5.2556977 Q 0,5.0883713 0.08857964,4.9407108 0.18700054,4.7931336 0.34447731,4.6749719 0.50194575,4.5470605 0.69878755,4.4584809 0.89562935,4.3600683 1.1023124,4.3009875 L 4.9013708,3.4939378 7.7457439,0.4428982 Q 7.8540061,0.2362402 8.0606891,0.1180784 8.2673722,0 8.5232699,0 L 15.12732,0 q 0.255897,0 0.433057,0.1279113 0.187,0.1181618 0.334627,0.3149869 l 1.594426,3.0313737 q 0.0098,0 0.255897,0.069164 0.25589,0.069164 0.560994,0.1475772 0.354318,0.098413 0.797216,0.2067414 z m -8.178792,-0.4626474 0,-2.7951335 -2.3817926,0 -2.5195784,2.7951335 4.901371,0 z m 0.708629,0 5.058847,0 -1.417266,-2.7951335 -3.641581,0 0,2.7951335 z"
     id="path518"
     style="fill:#323232;fill-opacity:1;fill-rule:nonzero;stroke:none"
     inkscape:connector-curvature="0" />
  <metadata
     id="metadata935">
    <rdf:RDF>
      <cc:Work
         rdf:about="">
        <dc:format>image/svg+xml</dc:format>
        <dc:type
           rdf:resource="http://purl.org/dc/dcmitype/StillImage" />
        <dc:title />
      </cc:Work>
    </rdf:RDF>
  </metadata>
  <defs
     id="defs933" />
  <rect
     width="5067"
     height="4685"
     x="-395.82547"
     y="-3314.033"
     id="rect4"
     style="fill:none;stroke:#000000" />
</svg>
