<?xml version="1.0" encoding="UTF-8" standalone="no"?>
<!-- Created with Inkscape (http://www.inkscape.org/) -->

<svg
   xmlns:dc="http://purl.org/dc/elements/1.1/"
   xmlns:cc="http://creativecommons.org/ns#"
   xmlns:rdf="http://www.w3.org/1999/02/22-rdf-syntax-ns#"
   xmlns:svg="http://www.w3.org/2000/svg"
   xmlns="http://www.w3.org/2000/svg"
   version="1.1"
   width="14.185797"
   height="13"
   id="svg13735">
  <path
     d="m -5607.1274,-335.7243 10136,0 m -5068,-4686 0,9372"
     id="path13741"
     style="fill-rule:nonzero;stroke:#0000ff;stroke-dasharray:5, 5" />
  <path
     d="m 3.9169111,12.90418 1.6741012,-5.6150217 -3.292126,0 L 1.2976244,8.3945163 0,8.3945163 0.82503171,6.4641129 0,4.5737139 l 1.2976244,0 0.985239,1.0813827 3.2921332,0 L 3.9169111,0.0961087 5.2145425,0 l 3.588503,5.6550966 4.5497035,0 q 0.344432,0 0.584739,0.2242772 0.248309,0.2242782 0.248309,0.5847391 0,0.1681724 -0.06404,0.3203862 -0.06404,0.1441983 -0.184231,0.2643519 -0.112146,0.1121391 -0.264338,0.176188 -0.152186,0.06383 -0.3204,0.06383 l -4.5256736,0 L 5.2145768,13 3.9169453,12.903886 z"
     id="path13849"
     style="fill:#323232;fill-opacity:1;fill-rule:nonzero;stroke:none" />
  <metadata
     id="metadata13950">
    <rdf:RDF>
      <cc:Work
         rdf:about="">
        <dc:format>image/svg+xml</dc:format>
        <dc:type
           rdf:resource="http://purl.org/dc/dcmitype/StillImage" />
        <dc:title></dc:title>
      </cc:Work>
    </rdf:RDF>
  </metadata>
  <defs
     id="defs13948" />
  <rect
     width="5067"
     height="4685"
     x="-639.12738"
     y="-2111.7241"
     id="rect13737"
     style="fill:none;stroke:#000000" />
</svg>
