<?xml version="1.0" encoding="UTF-8" standalone="no"?>
<!-- Created with Inkscape (http://www.inkscape.org/) -->

<svg
   xmlns:dc="http://purl.org/dc/elements/1.1/"
   xmlns:cc="http://creativecommons.org/ns#"
   xmlns:rdf="http://www.w3.org/1999/02/22-rdf-syntax-ns#"
   xmlns:svg="http://www.w3.org/2000/svg"
   xmlns="http://www.w3.org/2000/svg"
   version="1.1"
   width="7.1879058"
   height="13"
   id="svg2">
  <path
     d="m -5214.9532,-213.0202 10136,0 m -5067.99996,-4686 0,9372"
     id="path8"
     style="fill-rule:nonzero;stroke:#0000ff;stroke-dasharray:5, 5" />
  <path
     d="m 6.7035692,0 q 0.2035583,0 0.3439475,0.154375 0.1403891,0.14744167 0.1403891,0.34395833 l 0,12.00333367 q 0,0.203558 -0.1403891,0.350891 Q 6.9071275,13 6.7035692,13 L 0.4703075,13 Q 0.27375833,13 0.13336917,12.852558 0,12.705225 0,12.501667 L 0,0.49833333 Q 0,0.30181667 0.13336917,0.154375 0.27375833,0 0.4703075,0 L 6.7035692,0 z M 1.9022683,12.017308 q 0.2035584,0 0.3439475,-0.1404 0.1403892,-0.133358 0.1403892,-0.329983 0,-0.203558 -0.1403892,-0.336917 -0.1403891,-0.1404 -0.3439475,-0.1404 l -0.4632875,0 q -0.2105783,0 -0.3509675,0.1404 -0.13336913,0.133359 -0.13336913,0.336917 0,0.196625 0.13336913,0.329983 0.1403892,0.1404 0.3509675,0.1404 l 0.4632875,0 z m 0,-1.43195 q 0.2035584,0 0.3439475,-0.1404 0.1403892,-0.1404 0.1403892,-0.343958 0,-0.196625 -0.1403892,-0.3369167 Q 2.1058267,9.6166417 1.9022683,9.6166417 l -0.4632875,0 q -0.2105783,0 -0.3509675,0.1474416 Q 0.95464417,9.904375 0.95464417,10.101 q 0,0.203558 0.13336913,0.343958 0.1403892,0.1404 0.3509675,0.1404 l 0.4632875,0 z m 0,-1.432058 q 0.2035584,0 0.3439475,-0.1402917 Q 2.386605,8.8655667 2.386605,8.66905 q 0,-0.2106 -0.1403892,-0.3439583 -0.1403891,-0.1404 -0.3439475,-0.1404 l -0.4632875,0 q -0.2105783,0 -0.3509675,0.1404 Q 0.95464417,8.45845 0.95464417,8.66905 q 0,0.1965167 0.13336913,0.3439583 Q 1.2284025,9.1533 1.4389808,9.1533 l 0.4632875,0 z m 1.9373684,2.864008 q 0.1895183,0 0.3228875,-0.1404 0.1403891,-0.133358 0.1403891,-0.329983 0,-0.203558 -0.1403891,-0.336917 -0.1333692,-0.1404 -0.3228875,-0.1404 l -0.4843475,0 q -0.2105784,0 -0.3509675,0.1404 -0.1333692,0.133359 -0.1333692,0.336917 0,0.196625 0.1333692,0.329983 0.1403891,0.1404 0.3509675,0.1404 l 0.4843475,0 z m 0,-1.43195 q 0.1895183,0 0.3228875,-0.1404 0.1403891,-0.1404 0.1403891,-0.343958 0,-0.196625 -0.1403891,-0.3369167 Q 4.029155,9.6166417 3.8396367,9.6166417 l -0.4843475,0 q -0.2105784,0 -0.3509675,0.1474416 Q 2.8709525,9.904375 2.8709525,10.101 q 0,0.203558 0.1333692,0.343958 0.1403891,0.1404 0.3509675,0.1404 l 0.4843475,0 z m 0,-1.432058 q 0.1895183,0 0.3228875,-0.1402917 0.1403891,-0.1474416 0.1403891,-0.3439583 0,-0.2106 -0.1403891,-0.3439583 -0.1333692,-0.1404 -0.3228875,-0.1404 l -0.4843475,0 q -0.2105784,0 -0.3509675,0.1404 Q 2.8709525,8.45845 2.8709525,8.66905 q 0,0.1965167 0.1333692,0.3439583 Q 3.1447108,9.1533 3.3552892,9.1533 l 0.4843475,0 z m 1.9163083,2.864008 q 0.1965383,0 0.3369275,-0.1404 0.1474092,-0.133358 0.1474092,-0.329983 0,-0.203558 -0.1474092,-0.336917 -0.1403892,-0.1404 -0.3369275,-0.1404 l -0.4843475,0 q -0.1965383,0 -0.3439475,0.1404 -0.1403892,0.133359 -0.1403892,0.336917 0,0.196625 0.1403892,0.329983 0.1474092,0.1404 0.3439475,0.1404 l 0.4843475,0 z m 0,-1.43195 q 0.1965383,0 0.3369275,-0.1404 0.1474092,-0.1404 0.1474092,-0.343958 0,-0.196625 -0.1474092,-0.3369167 Q 5.9524833,9.6166417 5.755945,9.6166417 l -0.4843475,0 q -0.1965383,0 -0.3439475,0.1474416 Q 4.7872608,9.904375 4.7872608,10.101 q 0,0.203558 0.1403892,0.343958 0.1474092,0.1404 0.3439475,0.1404 l 0.4843475,0 z m 0,-1.432058 q 0.1965383,0 0.3369275,-0.1402917 0.1474092,-0.1474416 0.1474092,-0.3439583 0,-0.2106 -0.1474092,-0.3439583 -0.1403892,-0.1404 -0.3369275,-0.1404 l -0.4843475,0 q -0.1965383,0 -0.3439475,0.1404 Q 4.7872608,8.45845 4.7872608,8.66905 q 0,0.1965167 0.1403892,0.3439583 Q 5.0750592,9.1533 5.2715975,9.1533 l 0.4843475,0 z M 6.2543217,1.46705 q 0,-0.1965167 -0.1544292,-0.329875 -0.1474092,-0.1404 -0.3439475,-0.1404 l -4.3169642,0 q -0.2105783,0 -0.3579875,0.1404 Q 0.93358417,1.2705333 0.93358417,1.46705 l 0,5.2856917 q 0,0.189475 0.14740913,0.3439583 0.1474092,0.154375 0.3579875,0.154375 l 4.3169642,0 q 0.098258,0 0.1895183,-0.04225 0.091217,-0.04225 0.1544292,-0.1122333 0.0702,-0.070417 0.1123092,-0.1544834 0.042142,-0.091 0.042142,-0.189475 l 0,-5.2856916 z"
     id="path744"
     style="fill:#323232;fill-opacity:1;fill-rule:nonzero;stroke:none" />
  <metadata
     id="metadata1389">
    <rdf:RDF>
      <cc:Work
         rdf:about="">
        <dc:format>image/svg+xml</dc:format>
        <dc:type
           rdf:resource="http://purl.org/dc/dcmitype/StillImage" />
        <dc:title></dc:title>
      </cc:Work>
    </rdf:RDF>
  </metadata>
  <defs
     id="defs1387" />
  <rect
     width="5067"
     height="4685"
     x="-246.95316"
     y="-1981.0201"
     id="rect4"
     style="fill:none;stroke:#000000" />
</svg>
