<?xml version="1.0" encoding="UTF-8" standalone="no"?>
<!-- Created with Inkscape (http://www.inkscape.org/) -->

<svg
   xmlns:dc="http://purl.org/dc/elements/1.1/"
   xmlns:cc="http://creativecommons.org/ns#"
   xmlns:rdf="http://www.w3.org/1999/02/22-rdf-syntax-ns#"
   xmlns:svg="http://www.w3.org/2000/svg"
   xmlns="http://www.w3.org/2000/svg"
   version="1.1"
   width="12.98591"
   height="13"
   id="svg2">
  <path
     d="m -5445.983,-165.856 10135.9999,0 m -5067.99999,-4686 0,9372"
     id="path8"
     style="fill-rule:nonzero;stroke:#0000ff;stroke-dasharray:5, 5" />
  <path
     d="m 6.4964743,0 q 0.8938787,0 1.7244186,0.23225302 0.8305332,0.2323179 1.5484528,0.65461976 0.7249583,0.42230172 1.3161863,1.02056262 0.591229,0.591248 1.013538,1.3161865 0.422301,0.7179261 0.654575,1.5484409 0.232265,0.8305136 0.232265,1.7314754 0,0.9008978 -0.232265,1.7314115 Q 12.521371,9.058452 12.09907,9.7834544 11.676761,10.508393 11.085532,11.099642 10.494304,11.690825 9.7693457,12.113127 9.0514262,12.535494 8.2208929,12.767747 7.390353,13 6.4964743,13 5.6025957,13 4.7720558,12.767747 3.9415224,12.535494 3.2165645,12.113127 2.498645,11.690825 1.9003776,11.099642 1.3091485,10.508393 0.88684028,9.7834544 0.46453848,9.058452 0.23226599,8.2279372 0,7.3974236 0,6.5035382 0,5.6025764 0.23226599,4.7720628 0.46453848,3.941548 0.88684028,3.2236219 1.3091485,2.4986834 1.9003776,1.9074354 2.498645,1.3091745 3.2165645,0.88687278 3.9415224,0.46457092 4.7720558,0.23225302 5.6025957,0 6.4964743,0 z m 1.5202995,12.049821 q 0.9079618,-0.246343 1.6821883,-0.767208 0.7812649,-0.527877 1.3443409,-1.252815 0.563075,-0.732016 0.879802,-1.6329138 0.32377,-0.9009618 0.32377,-1.893346 0,-0.7953866 -0.21115,-1.5273375 Q 11.831605,4.2371723 11.458573,3.5966428 11.085532,2.9561772 10.557649,2.4283003 10.036804,1.9003581 9.396306,1.5273378 8.7558084,1.1543176 8.0167738,0.9501791 7.2847775,0.73902812 6.4964743,0.73902812 q -0.6616126,0 -1.2880335,0.15485697 Q 4.58202,1.0417298 4.0189445,1.3091745 q 0.077421,0.021427 0.1548439,0.042205 0.084466,0.014285 0.1618889,0.014285 l 0.049282,0 q 0.1478056,-0.021426 0.2393043,-0.049346 0.091498,-0.02792 0.1478056,-0.056489 0.063372,-0.02792 0.098537,-0.070383 0.281541,-0.056488 0.5067687,-0.056488 0.3448862,0 0.5560372,0.091485 0.2181892,0.091485 0.2181892,0.1970612 0,0.035062 -0.021102,0.063631 -0.063372,0.077395 -0.1759591,0.1336899 -0.1126138,0.049347 -0.2463427,0.07746 -0.1337289,0.02792 -0.281541,0.042204 -0.1407673,0.014285 -0.2604195,0.021427 -0.1266905,0.014285 -0.2252276,0.035062 -0.091505,0.021427 -0.1689272,0.07746 -0.077421,0.049347 -0.1407672,0.1407672 -0.063372,0.091485 -0.1196523,0.2393306 -0.01409,0.021428 -0.01409,0.049346 0,0.021428 0,0.035057 0,0.1126537 0.1126138,0.1619345 0.1196522,0.042207 0.2744962,0.042207 0.1618889,0 0.3026561,-0.035068 0.1478056,-0.042207 0.1829975,-0.084467 0.049282,-0.035068 0.1196522,-0.035068 0.1126203,0 0.2463491,0.070384 0.133729,0.063635 0.1900359,0.1900492 0.042205,0.119665 0.1618824,0.1970616 0.1196586,0.077458 0.2111573,0.077458 0.091498,0 0.091498,-0.070384 0,-0.042207 -0.00701,-0.070384 -0.00701,-0.035068 -0.00701,-0.070384 0,-0.035057 0.021102,-0.070384 0.021102,-0.035068 0.098537,-0.077458 0.091498,-0.056485 0.091498,-0.1548571 0,-0.077393 -0.049282,-0.1688819 -0.042204,-0.098563 -0.091498,-0.2182286 -0.021102,-0.049347 -0.021102,-0.084473 0,-0.062982 0.056294,-0.077395 0.063371,-0.021426 0.1478057,-0.021426 L 6.9610553,1.85146 q 0.091498,0.014285 0.1548441,0.084408 0.070384,0.070384 0.1196521,0.1548571 0.056294,0.07746 0.098537,0.1478445 0.042204,0.062985 0.077421,0.062985 l 0.00701,0 q 0.02818,0 0.042205,-0.020778 0.01409,-0.027917 0.02818,-0.056485 0.021102,-0.035068 0.056294,-0.063635 0.035192,-0.02792 0.098537,-0.02792 0.070384,0 0.1829974,0.042204 0.1126138,0.035068 0.2956114,0.1407672 0.1970806,0.119665 0.2745025,0.2111504 0.08446,0.084478 0.08446,0.1618695 0,0.070384 -0.056294,0.1267424 Q 8.3687188,2.864816 8.2772073,2.906958 8.1927463,2.949165 8.0871649,2.977342 7.9886279,2.99877 7.8971291,3.01241 7.7282084,3.033188 7.6015179,3.096878 7.4818656,3.160513 7.4818656,3.2164791 q 0,0.070384 0.2111509,0.070384 0.098537,0 0.133729,0.014289 0.035192,0.014289 0.035192,0.035067 0,0.027918 -0.042205,0.056485 -0.035192,0.027918 -0.077421,0.056485 -0.056294,0.027918 -0.1196522,0.063635 -0.147812,0.021428 -0.2463492,0.063635 -0.098537,0.042207 -0.098537,0.1266774 0,0.035067 0.035192,0.1055708 -0.070384,0 -0.154844,0.020778 -0.08446,0.021428 -0.1689208,0.056485 -0.077421,0.035067 -0.1548439,0.077393 -0.070391,0.035057 -0.1126203,0.070384 0,0.042207 0,0.056485 0.00701,0.014289 0.00701,0.035067 0,0.014289 0,0.027918 0,0.014289 -0.00701,0.049346 -0.01409,0.035068 -0.042204,0.035068 0,-0.049346 0,-0.070384 0.00701,-0.027917 0.00701,-0.042207 0.00701,-0.021428 0.00701,-0.042207 0.00701,-0.027918 0.01409,-0.070384 l -0.01409,0.014289 q -0.00701,0 -0.00701,-0.027918 l -0.035192,0.035057 q 0,0.020778 -0.01409,0.020778 -0.01409,0 -0.021102,-0.020778 0,0.035067 0.00701,0.070384 0.01409,0.027918 0.02818,0.056485 -0.01409,-0.014289 -0.042204,-0.027918 -0.02818,-0.014289 -0.042205,-0.014289 0.00701,0.00715 0.00701,0.020778 0,0.00715 -0.00701,0.014289 0.035192,0.035067 0.042205,0.049346 0.01409,0.00715 0.01409,0.014289 0,0.014289 -0.00701,0.027918 0.042205,0.014289 0.049282,0.035068 0.01409,0.014289 0.01409,0.035067 0.00701,0.014289 0.00701,0.027918 0.00701,0.014289 0.02818,0.014289 -0.035192,0.042207 -0.070384,0.042207 -0.01409,0 -0.02818,0 -0.01409,-0.00715 -0.035192,-0.00715 l 0,0.056485 q 0.00701,-0.00715 0.02818,-0.00715 0.00701,0 0.01409,0.00715 0.00701,0 0.01409,0 l 0.01409,0 -0.01409,0.014289 q -0.1618824,0.049346 -0.2533811,0.098562 -0.091498,0.049346 -0.1407672,0.1055708 -0.049282,0.056485 -0.063372,0.1266775 -0.01409,0.063635 -0.01409,0.1478446 0,0.049346 0.00701,0.1055817 0.00701,0.049346 0.00701,0.1125876 0,0.049346 -0.00701,0.1126526 0,0.063635 -0.00701,0.098497 -0.09854,-0.2744579 -0.2815381,-0.3871104 -0.1829975,-0.1125876 -0.41527,-0.1125876 -0.1407672,0 -0.2744962,0.027918 0.01409,0.00715 0.02818,0.00715 l 0.02818,-0.00715 q 0.01409,0.00715 0.02818,0.00715 l 0.01409,0 0.00701,-0.00715 q 0,0.014289 -0.00701,0.027918 -0.00701,0.00715 -0.00701,0.014289 0.02818,0.027918 0.049282,0.042207 -0.1829974,-0.042207 -0.3519181,-0.042207 -0.1548505,0 -0.2956178,0.042207 -0.1337289,0.042207 -0.2322659,0.1548571 -0.01409,0.084478 -0.021102,0.1548571 -0.00701,0.070384 -0.00701,0.1336898 0,0.2675097 0.1055752,0.3660085 0.1126138,0.098562 0.2885729,0.098562 0.1618888,0 0.3519246,-0.056485 0.1900359,-0.063635 0.3871165,-0.1407673 l 0,0.014289 q -0.021102,0.091553 -0.070391,0.1407673 l 0.021102,0 0,0.014289 -0.021102,0 q -0.01409,0.042207 -0.02818,0.063635 -0.01409,0.014289 -0.042204,0.042207 l -0.00701,0.027918 q -0.00701,0.035068 -0.01409,0.084478 -0.00701,0.049346 -0.021102,0.098497 -0.01409,0.042207 -0.035192,0.063635 l 0.01409,0.00715 q 0.00701,0.00715 0.056294,0.021428 0.056294,-0.014289 0.08446,-0.027918 0.02818,-0.021428 0.070391,-0.021428 0.1618824,0 0.2463428,0.084478 0.08446,0.077393 0.1618824,0.1970616 0.077422,0.1125876 0.175959,0.2322526 0.1055816,0.119665 0.3096945,0.1900492 -0.070384,0.035068 -0.1055751,0.035068 -0.035192,-0.00715 -0.08446,0.063635 -0.035192,0 -0.035192,0.021428 Q 6.1448663,7.0053739 6.0885591,6.9839456 6.0322648,6.9560281 5.9829839,6.9345998 5.933702,6.9066823 5.8774088,6.8716148 5.8211144,6.8365473 5.7366414,6.7660439 q 0.00701,0.014289 0.01409,0.027918 0.01409,0.014289 0.01409,0.027918 0,0.014289 -0.00701,0.014289 -0.00701,-0.00715 -0.01409,-0.00715 Q 5.70853,6.7375306 5.62407,6.6249441 5.53961,6.5122915 5.5114497,6.4559972 q -0.077423,0 -0.1829975,-0.00715 Q 5.2228771,6.4416972 5.1454547,6.4066405 4.8920651,6.3010231 4.6738693,6.2236276 4.4627184,6.1391536 4.2656443,6.0476682 4.0685636,5.9561829 3.8785278,5.8365179 3.6955304,5.7097744 3.4984497,5.5057015 3.3436057,5.343832 3.1465315,5.139693 2.9564957,4.9285427 2.6679163,4.7244037 q 0.070383,0.1407672 0.1407673,0.2534209 0.070384,0.1055708 0.1407737,0.2040729 0.070383,0.091553 0.1407673,0.1759593 0.077423,0.084478 0.154844,0.1830368 l -0.056294,0.035057 Q 3.0339302,5.4421954 2.9142715,5.3436977 2.7946194,5.2381268 2.6538522,5.1043677 q 0.00701,-0.014289 0.00701,-0.049346 0,-0.098497 -0.091498,-0.2040729 Q 2.4778675,4.7382985 2.351177,4.6257109 2.2315182,4.5060459 2.0977894,4.3933933 1.9710989,4.2808057 1.8936768,4.1682171 l 0.02818,0.014289 q 0.01409,0 0.021102,-0.027918 Q 1.8162681,4.0909537 1.7599612,3.971552 1.7036669,3.8448746 1.7036669,3.7111847 q 0,-0.1759593 0.08446,-0.3167265 Q 1.774037,3.380169 1.7459223,3.3593907 1.7248201,3.3314732 1.7037178,3.3029057 1.2391793,3.9997295 0.99283657,4.8021285 0.74648736,5.6044636 0.74648736,6.5054264 q 0,0.7953216 0.20411255,1.5273375 0.21115739,0.7320159 0.58419059,1.3724804 0.3730398,0.6405307 0.8938852,1.1684077 0.5278837,0.520799 1.1683813,0.900898 0.640491,0.373019 1.3724938,0.577158 0.7319963,0.204073 1.5273379,0.204073 l 0.1759591,0 q -0.02818,-0.10557 -0.02818,-0.246342 0,-0.267445 0.077422,-0.570081 0.077421,-0.302637 0.1337353,-0.570147 0.049282,-0.225175 0.049282,-0.492685 0,-0.323739 -0.070384,-0.619363 Q 6.764332,9.4545262 6.6446804,9.2292861 6.588386,9.1166974 6.5039131,8.9970324 6.4264916,8.8773674 6.3490691,8.75069 6.278685,8.6240126 6.2223785,8.4972702 6.1730966,8.3705927 6.1730966,8.2439142 q 0,-0.077458 0.01409,-0.1407672 0.021102,-0.070384 0.070384,-0.1407673 -0.02818,0 -0.056294,-0.00715 -0.021102,-0.00715 -0.035192,-0.042207 0.056294,-0.1125876 0.1196587,-0.204139 0.070384,-0.091487 0.1266905,-0.1688819 0.063372,-0.077458 0.098537,-0.1548571 0.042204,-0.077393 0.042204,-0.1759583 0,-0.119665 -0.070384,-0.2674446 0.035192,0.014289 0.063372,0.020778 0.035192,0 0.070384,0.014289 l 0.021102,-0.063635 q 0.02818,-0.070384 0.056294,-0.1266775 0.02818,-0.056485 0.077421,-0.098562 0.056294,-0.042207 0.1548505,-0.070384 0.098537,-0.035068 0.2604194,-0.056485 0.049282,-0.00715 0.091498,-0.00715 0.049282,-0.00715 0.091498,-0.00715 0.1478122,0 0.2674644,0.027918 0.1196521,0.027918 0.2111509,0.063635 0.1055751,0.042207 0.1900357,0.091553 0.02818,0.014289 0.042205,0.035067 0.01409,0.021428 0.02818,0.035057 0.035192,0.021428 0.056294,0.021428 0.02818,0 0.02818,0.027918 0,0.014289 -0.00701,0.027918 0,0.00715 -0.00701,0.027918 0.063372,0.042207 0.098537,0.056485 0.035192,0.00715 0.063372,0.021428 0.035192,0.014289 0.063372,0.042207 0.02818,0.027918 0.08446,0.091552 0.063372,0 0.063372,0.014289 0.00701,0.014289 0.077421,0.070449 l 0.02818,0.014289 0.021102,0 q 0.098543,0 0.2885794,0.077458 0.1970741,0.070384 0.4223017,0.1900492 0.2252342,0.1196 0.4645386,0.2744571 0.2393106,0.1548571 0.4363846,0.3167266 0.197074,0.1618695 0.316726,0.323804 0.126697,0.1548571 0.126697,0.2744571 0,0.154857 -0.218195,0.2252401 0.007,0.042207 0.007,0.084478 0,0.042207 0,0.077393 0,0.2745221 -0.09854,0.4363916 -0.0915,0.1548571 -0.239304,0.2534198 -0.147812,0.098497 -0.3308095,0.1688819 -0.1759591,0.070384 -0.3448798,0.1759593 0.00701,0.02143 0.00701,0.06363 0,0.09856 -0.070383,0.23933 -0.070391,0.133691 -0.1759656,0.260368 -0.1055752,0.126743 -0.2322659,0.218228 -0.1266906,0.08448 -0.2463428,0.08448 -0.077429,0 -0.1478121,-0.04221 -0.070372,-0.04934 -0.1196394,-0.16888 l 0,0.06298 -0.021102,-0.0071 q 0.049282,0.07038 0.049282,0.168882 0,0.09856 -0.042205,0.211215 -0.042205,0.112589 -0.1055751,0.239266 -0.063372,0.126678 -0.1478056,0.260433 -0.077421,0.126677 -0.1618889,0.253354 -0.035192,0.06363 -0.077421,0.112653 z M 6.0952811,5.5603719 q 0.1689273,0 0.3519247,0.077393 0.1829974,0.077458 0.4293467,0.1759583 -0.1196587,0.021428 -0.2041191,0.021428 -0.1407672,0 -0.232266,-0.035068 Q 6.3486691,5.7650168 6.2782851,5.722626 6.2079009,5.6804193 6.1445497,5.6452327 6.081179,5.610176 6.0108207,5.610176 q -0.091498,0 -0.2111509,0.070384 0,-0.014289 -0.049282,-0.014289 Q 5.7855798,5.638353 5.8981934,5.602636 6.0108072,5.560429 6.0952676,5.560429 z m 0.7460795,0.4293792 q 0.042205,-0.049346 0.056294,-0.056485 0.01409,-0.014289 0.021102,-0.020778 0.01409,-0.00715 0.01409,-0.014289 0.00701,-0.00715 0.02818,-0.049346 0.1196521,0 0.2322659,0.027918 0.1196522,0.020778 0.2393044,0.056485 -0.1829975,0.084478 -0.3589565,0.084478 -0.1266905,0 -0.232266,-0.027918 z"
     id="path2236"
     style="fill:#323232;fill-opacity:1;fill-rule:nonzero;stroke:none" />
  <metadata
     id="metadata4125">
    <rdf:RDF>
      <cc:Work
         rdf:about="">
        <dc:format>image/svg+xml</dc:format>
        <dc:type
           rdf:resource="http://purl.org/dc/dcmitype/StillImage" />
        <dc:title></dc:title>
      </cc:Work>
    </rdf:RDF>
  </metadata>
  <defs
     id="defs4123" />
  <rect
     width="5067"
     height="4685"
     x="-636.83057"
     y="-2090.1357"
     id="rect4"
     style="fill:none;stroke:#000000" />
</svg>
