<?xml version="1.0" encoding="UTF-8" standalone="no"?>
<svg
   xmlns:dc="http://purl.org/dc/elements/1.1/"
   xmlns:cc="http://creativecommons.org/ns#"
   xmlns:rdf="http://www.w3.org/1999/02/22-rdf-syntax-ns#"
   xmlns:svg="http://www.w3.org/2000/svg"
   xmlns="http://www.w3.org/2000/svg"
   xmlns:sodipodi="http://sodipodi.sourceforge.net/DTD/sodipodi-0.dtd"
   xmlns:inkscape="http://www.inkscape.org/namespaces/inkscape"
   viewBox="0 0 283.81425 78.000001"
   height="78"
   width="283.81424"
   xml:space="preserve"
   version="1.1"
   id="svg2"
   inkscape:version="0.91 r13725"
   sodipodi:docname="f-secure_logo.svg"><sodipodi:namedview
     pagecolor="#ffffff"
     bordercolor="#666666"
     borderopacity="1"
     objecttolerance="10"
     gridtolerance="10"
     guidetolerance="10"
     inkscape:pageopacity="0"
     inkscape:pageshadow="2"
     inkscape:window-width="1224"
     inkscape:window-height="480"
     id="namedview3489"
     showgrid="false"
     fit-margin-top="0"
     fit-margin-left="0"
     fit-margin-right="0"
     fit-margin-bottom="0"
     inkscape:zoom="0.32725414"
     inkscape:cx="513.36249"
     inkscape:cy="141.08697"
     inkscape:window-x="560"
     inkscape:window-y="309"
     inkscape:window-maximized="0"
     inkscape:current-layer="svg2" /><metadata
     id="metadata8"><rdf:RDF><cc:Work
         rdf:about=""><dc:format>image/svg+xml</dc:format><dc:type
           rdf:resource="http://purl.org/dc/dcmitype/StillImage" /><dc:title></dc:title></cc:Work></rdf:RDF></metadata><defs
     id="defs6" /><g
     transform="matrix(0.34553258,0,0,-0.34553258,0,78.000146)"
     id="g10"><g
       transform="scale(0.1,0.1)"
       id="g12"><path
         id="path14"
         style="fill:#231f20;fill-opacity:1;fill-rule:nonzero;stroke:none"
         d="m 5866.09,369.07 -7.2,0 0,28.102 c 1.74,0.117 5.22,0.199 7.2,0.199 18.12,0 20.1,-4.402 20.1,-13.992 0,-10.231 -4.53,-14.309 -20.1,-14.309 z m 41.85,14.918 c 0,19.891 -10.15,29.84 -41.85,29.84 -9.18,0 -21.19,-0.726 -28.42,-1.699 l 0,-88.469 21.22,0 0,29.879 9.38,0 16.22,-29.879 25.35,0 -20.94,34.129 c 10.67,4.281 19.04,13.422 19.04,26.199"
         inkscape:connector-curvature="0" /><path
         id="path16"
         style="fill:#231f20;fill-opacity:1;fill-rule:nonzero;stroke:none"
         d="m 5871.63,296 c -51.59,0 -71.97,19.328 -71.97,71.941 0,52.559 20.38,71.688 71.97,71.688 50.91,0 71.98,-19.129 71.98,-71.688 0,-52.613 -21.07,-71.941 -71.98,-71.941 z m 0,160.93 c -59.24,0 -89.28,-30.121 -89.28,-88.989 0,-59 30.04,-89.242 89.28,-89.242 58.91,0 89.12,30.242 89.12,89.242 0,58.868 -30.21,88.989 -89.12,88.989"
         inkscape:connector-curvature="0" /><path
         id="path18"
         style="fill:#231f20;fill-opacity:1;fill-rule:nonzero;stroke:none"
         d="m 0,1259.93 c 0,14.88 3.23438,18.12 18.2383,18.12 l 581.9997,0 c 15,0 18.235,-3.24 18.235,-18.12 l 0,-175.28 c 0,-14.84 -3.235,-18.2 -18.235,-18.2 l -360.519,0 0,-213.29 301.019,0 c 14.86,0 18.235,-3.32 18.235,-18.199 l 0,-172.012 c 0,-14.84 -3.375,-18.238 -18.235,-18.238 l -301.019,0 0,-330.711 c 0,-14.879 -3.211,-18.121 -18.055,-18.121 l -203.4257,0 C 3.23438,295.879 0,299.121 0,314 l 0,945.93"
         inkscape:connector-curvature="0" /><path
         id="path20"
         style="fill:#231f20;fill-opacity:1;fill-rule:nonzero;stroke:none"
         d="m 729.324,644.711 c -14.84,0 -18.215,3.398 -18.215,18.238 l 0,172.012 c 0,14.879 3.375,18.199 18.215,18.199 l 297.606,0 c 15,0 18.21,-3.32 18.21,-18.199 l 0,-172.012 c 0,-14.84 -3.21,-18.238 -18.21,-18.238 l -297.606,0"
         inkscape:connector-curvature="0" /><path
         id="path22"
         style="fill:#231f20;fill-opacity:1;fill-rule:nonzero;stroke:none"
         d="m 1379.18,1010.29 c 0,-64.54 38.05,-77.759 185.23,-120.821 210.08,-61.098 287.84,-142.207 287.84,-305.848 0,-213.34 -178.71,-304.32 -382.13,-304.32 -115.79,0 -226.48,33.121 -289.38,67.769 -9.91,4.969 -14.86,9.95 -14.86,23.211 l 0,128.989 c 0,11.48 3.26,14.8 13.29,14.8 21.47,0 150.43,-36.351 274.37,-36.351 110.87,0 162.2,26.402 162.2,92.672 0,66.07 -46.42,84.269 -177.06,119.039 -219.93,59.57 -294.29,140.519 -294.29,304.281 0,193.479 155.53,300.919 345.68,300.919 110.65,0 200.01,-23.13 285.95,-67.73 11.61,-6.76 15.01,-9.95 15.01,-23.25 l 0,-128.87 c 0,-11.64 -6.64,-14.92 -15.01,-14.92 -28.14,0 -143.74,36.35 -272.83,36.35 -89.34,0 -124.01,-34.73 -124.01,-85.92"
         inkscape:connector-curvature="0" /><path
         id="path24"
         style="fill:#231f20;fill-opacity:1;fill-rule:nonzero;stroke:none"
         d="m 2181.24,735.77 264.61,0 c 0,107.441 -34.73,150.378 -123.99,150.378 -81.16,0 -135.72,-42.937 -140.62,-150.378 z m 1.7,-132.34 c 8.19,-105.821 66.15,-135.7 193.36,-135.7 127.43,0 223.39,31.54 246.41,31.54 10.05,0 15,-1.661 15,-14.961 l 0,-122.36 c 0,-14.879 -6.65,-18.187 -18.23,-23.129 -69.43,-29.761 -168.7,-59.519 -287.72,-59.519 -243.11,0 -383.66,110.789 -383.66,381.988 0,256.32 138.85,395.251 373.76,395.251 264.54,0 347.23,-158.778 347.23,-373.7 l 0,-61.301 c 0,-14.871 -3.23,-18.109 -18.23,-18.109 l -467.92,0"
         inkscape:connector-curvature="0" /><path
         id="path26"
         style="fill:#231f20;fill-opacity:1;fill-rule:nonzero;stroke:none"
         d="m 3138.72,1056.54 c 94.32,0 188.47,-28.14 251.39,-57.86 14.84,-6.629 16.54,-9.989 16.54,-24.871 l 0,-118.75 c 0,-8.289 -1.7,-14.879 -11.65,-14.879 -23.13,0 -112.35,27.769 -216.55,27.769 -129.09,0 -177,-69.379 -177,-200.031 0,-130.598 47.91,-200.188 177,-200.188 104.2,0 200.05,31.622 223.26,31.622 9.87,0 11.61,-6.633 11.61,-14.922 l 0,-122.481 c 0,-14.879 -1.74,-18.187 -16.54,-24.777 -62.92,-29.762 -163.74,-57.871 -258.06,-57.871 -256.29,0 -373.8,158.711 -373.8,388.617 0,229.844 117.51,388.622 373.8,388.622"
         inkscape:connector-curvature="0" /><path
         id="path28"
         style="fill:#231f20;fill-opacity:1;fill-rule:nonzero;stroke:none"
         d="m 3886.32,279.301 c -203.38,0 -357.28,64.461 -357.28,302.66 l 0,443.449 c 0,14.88 3.32,18.15 18.28,18.15 l 198.37,0 c 14.98,0 18.18,-3.27 18.18,-18.15 l 0,-412.191 c 0,-100.891 33.07,-145.489 133.9,-145.489 41.44,0 82.71,1.622 114.27,4.891 l 0,552.789 c 0,14.88 3.23,18.15 18.05,18.15 l 198.47,0 c 14.84,0 18.15,-3.27 18.15,-18.15 l 0,-686.59 c 0,-14.879 -1.62,-16.539 -13.18,-19.808 -97.52,-23.133 -228.16,-39.711 -347.21,-39.711"
         inkscape:connector-curvature="0" /><path
         id="path30"
         style="fill:#231f20;fill-opacity:1;fill-rule:nonzero;stroke:none"
         d="m 4756.03,863.059 c -42.98,0 -84.27,-4.969 -109.13,-14.84 l 0,-534.219 c 0,-14.879 -3.24,-18.121 -18.08,-18.121 l -198.45,0 c -14.92,0 -18.28,3.242 -18.28,18.121 l 0,661.512 c 0,11.566 4.98,16.539 15,19.816 89.16,34.732 183.42,61.212 289.36,61.212 62.71,0 124.05,-4.97 178.59,-21.47 9.87,-3.35 11.61,-6.67 11.61,-16.58 l 0,-148.842 c 0,-14.839 -5.01,-16.488 -15.04,-16.488 -18.04,0 -61.22,9.899 -135.58,9.899"
         inkscape:connector-curvature="0" /><path
         id="path32"
         style="fill:#231f20;fill-opacity:1;fill-rule:nonzero;stroke:none"
         d="m 5189.37,735.77 264.61,0 c 0,107.441 -34.73,150.378 -124.1,150.378 -80.95,0 -135.58,-42.937 -140.51,-150.378 z m 1.7,-132.34 c 8.13,-105.821 66.15,-135.7 193.36,-135.7 127.37,0 223.4,31.54 246.37,31.54 9.99,0 14.84,-1.661 14.84,-14.961 l 0,-122.36 c 0,-14.879 -6.43,-18.187 -17.99,-23.129 -69.59,-29.761 -168.7,-59.519 -287.74,-59.519 -243.13,0 -383.69,110.789 -383.69,381.988 0,256.32 138.82,395.251 373.66,395.251 264.65,0 347.34,-158.778 347.34,-373.7 l 0,-61.301 c 0,-14.871 -3.4,-18.109 -18.2,-18.109 l -467.95,0"
         inkscape:connector-curvature="0" /><path
         id="path34"
         style="fill:#231f20;fill-opacity:1;fill-rule:nonzero;stroke:none"
         d="m 8206.28,2046.45 c -756.06,263.73 -1550.32,275.58 -2252.49,61.2 -149.8,-45.74 -190.25,-172.24 -163.98,-278.9 40.12,-162.87 98.66,-348.59 169.58,-518.09 1.31,-3.12 3.22,-1.64 2.77,2.55 -8.82,79.36 50.63,179.28 170.59,215.67 664.63,201.6 1244.63,152.07 1761.88,-23.35 87.22,-29.58 184.72,17.16 212.45,106.93 70.59,228.24 99.65,383.45 106.55,421.69 1.3,7.36 -4.39,11.27 -7.35,12.3"
         inkscape:connector-curvature="0" /><path
         id="path36"
         style="fill:#231f20;fill-opacity:1;fill-rule:nonzero;stroke:none"
         d="m 6456.29,1545.52 c -87.59,-18.51 -208.21,-46.95 -297.84,-77.6 -180.42,-61.73 -172.82,-281.07 -75.97,-351.33 6.64,40.83 50.03,96.15 98.64,114.91 181.09,69.96 373.68,113.31 569.67,129.97 -98.77,40.6 -196.75,98.49 -294.5,184.05"
         inkscape:connector-curvature="0" /><path
         id="path38"
         style="fill:#231f20;fill-opacity:1;fill-rule:nonzero;stroke:none"
         d="m 7893.01,1105.01 c -521.91,249.9 -1149.64,267.95 -1667.27,66.68 -85.2,-33.13 -139.46,-137.41 -85.16,-236.53 86.55,-158.012 194.97,-326.109 318.57,-486.738 -17.1,59.156 13.28,168.859 128.95,204.496 318.37,98.172 653.85,56.594 876.98,-33.418 63.23,-25.52 151.05,-10.48 201.63,64.898 110.34,164.442 209.76,362.382 231.66,406.922 3.04,5.94 0.12,11.08 -5.36,13.69"
         inkscape:connector-curvature="0" /><path
         id="path40"
         style="fill:#231f20;fill-opacity:1;fill-rule:nonzero;stroke:none"
         d="m 7374.84,318.422 c -56.77,16.269 -198.14,127.328 -252.91,182.129 -34.67,34.621 -85.23,83.98 -139.26,143.14 -121.55,0 -240.42,-12.57 -367.18,-52.55 -116.47,-36.719 -127.86,-173.45 -76.78,-243.43 87.74,-108.199 147.99,-167.41 245.41,-267.8126 101.7,-104.7968 282.64,-107.4687 387.24,-2.2695 76.23,76.7301 122.87,127.0121 208.77,224.2811 4.78,5.442 3.14,14.07 -5.29,16.512"
         inkscape:connector-curvature="0" /></g></g></svg>