<?xml version="1.0" encoding="UTF-8" standalone="no"?>
<!-- Created with Inkscape (http://www.inkscape.org/) -->

<svg
   xmlns:dc="http://purl.org/dc/elements/1.1/"
   xmlns:cc="http://creativecommons.org/ns#"
   xmlns:rdf="http://www.w3.org/1999/02/22-rdf-syntax-ns#"
   xmlns:svg="http://www.w3.org/2000/svg"
   xmlns="http://www.w3.org/2000/svg"
   version="1.1"
   width="13.087913"
   height="9"
   id="svg2">
  <path
     d="m -5674.8221,-10.8559 10136,0 m -5067.99997,-4686 0,9372"
     id="path8"
     style="fill-rule:nonzero;stroke:#0000ff;stroke-dasharray:5, 5" />
  <path
     d="m 11.953845,0 q 0.237368,0 0.441758,0.092325 0.21099,0.085725 0.36264,0.237375 0.15165,0.15165 0.237358,0.356025 0.09231,0.204375 0.09231,0.43515 l 0,0.210975 L 0,1.33185 0,1.120875 Q 0,0.8901 0.09231,0.685725 0.1846125,0.48135 0.3362625,0.3297 0.494505,0.17805 0.6989025,0.092325 0.90330002,0 1.1340675,0 L 11.953845,0 z M 0,2.6769 l 13.087913,0 0,5.2088252 q 0,0.2307746 -0.09231,0.43515 -0.08571,0.197775 -0.237358,0.349425 -0.15165,0.15165 -0.36264,0.2439748 Q 12.191213,9 11.953845,9 L 1.1340675,9 Q 0.90330002,9 0.6989025,8.914275 0.494505,8.8219502 0.3362625,8.6703002 0.1846125,8.5186502 0.09231,8.3208752 0,8.1164998 0,7.8857252 L 0,2.6769 z"
     id="path148"
     style="fill:#323232;fill-opacity:1;fill-rule:nonzero;stroke:none" />
  <metadata
     id="metadata265">
    <rdf:RDF>
      <cc:Work
         rdf:about="">
        <dc:format>image/svg+xml</dc:format>
        <dc:type
           rdf:resource="http://purl.org/dc/dcmitype/StillImage" />
        <dc:title></dc:title>
      </cc:Work>
    </rdf:RDF>
  </metadata>
  <defs
     id="defs263" />
  <rect
     width="5067"
     height="4685"
     x="-706.82208"
     y="-1753.856"
     id="rect4"
     style="fill:none;stroke:#000000" />
</svg>
