<?xml version="1.0" encoding="UTF-8" standalone="no"?>
<svg
   xmlns="http://www.w3.org/2000/svg"
   version="1.1"
   width="25"
   height="25">
  <g
     transform="translate(-70.357143,-242.71933)"
     id="layer1">
    <path
       d="m 72.357143,242.71933 0,2 -2,0 0,21 2,0 0,2 21,0 0,-2 2,0 0,-21 -2,0 0,-2 z m 2,4 17,0 0,17 -17,0 z m 2,2 0,3 3,0 0,-3 z m 6,6 0,1 1,0 0,-1 z m 0,3 0,4 1,0 0,-4 z"
       id="rect3761"
       style="color:#000000;fill:#000000;fill-opacity:1;fill-rule:nonzero;stroke:none;stroke-width:1;marker:none;visibility:visible;display:inline;overflow:visible;enable-background:accumulate" />
  </g>
</svg>
