<?xml version="1.0" encoding="UTF-8" standalone="no"?>
<!-- Created with Inkscape (http://www.inkscape.org/) -->

<svg
   xmlns:dc="http://purl.org/dc/elements/1.1/"
   xmlns:cc="http://creativecommons.org/ns#"
   xmlns:rdf="http://www.w3.org/1999/02/22-rdf-syntax-ns#"
   xmlns:svg="http://www.w3.org/2000/svg"
   xmlns="http://www.w3.org/2000/svg"
   version="1.1"
   width="13"
   height="13"
   id="svg16724">
  <path
     d="m -3960.7161,753.4534 10136,0 m -5068,-4686 0,9372"
     id="path16730"
     style="fill-rule:nonzero;stroke:#0000ff;stroke-dasharray:5, 5" />
  <path
     d="M 0,6.5 Q 0,5.605275 0.21929825,4.77191 0.43859649,3.93861 0.85087717,3.21932 1.2631579,2.50003 1.8421053,1.903525 2.4298246,1.30702 3.1491228,0.88595 3.868421,0.46488 4.7105264,0.23686 5.5614035,0 6.5,0 7.4385967,0 8.2807016,0.23686 9.131579,0.46488 9.8508774,0.88595 q 0.7192976,0.42107 1.2982456,1.017575 0.587719,0.596505 1,1.315795 0.412281,0.71929 0.631579,1.55259 Q 13,5.605275 13,6.5 q 0,0.894725 -0.219298,1.72809 -0.219298,0.8333 -0.631579,1.55259 -0.412281,0.71929 -1,1.315795 Q 10.570175,11.69298 9.8508774,12.11405 9.1315789,12.53512 8.2807016,12.771915 7.4385967,13 6.5,13 5.5614035,13 4.7105264,12.771915 3.868421,12.53512 3.1491228,12.11405 2.4298246,11.69298 1.8421053,11.096475 1.2631579,10.49997 0.85087717,9.78068 0.43859649,9.06139 0.21929825,8.22809 0,7.394725 0,6.5 z m 0.877193,0 q 0,1.184235 0.4473684,2.22807 0.4473684,1.03506 1.2105263,1.815775 0.7719299,0.77194 1.7894737,1.219335 1.0263158,0.44733 2.1754386,0.44733 1.2543862,0 2.2894735,-0.44733 1.035088,-0.447395 1.7719295,-1.219335 Q 11.307018,9.76313 11.710526,8.72807 12.122807,7.684235 12.122807,6.5 q 0,-1.184235 -0.412281,-2.219295 Q 11.307018,3.23687 10.561403,2.46493 9.8245615,1.684215 8.7894736,1.23682 7.7543862,0.78949 6.5,0.78949 5.7280702,0.78949 5.0087719,0.99125 4.2982457,1.19301 3.6754385,1.570205 3.0526316,1.938625 2.5350877,2.456155 2.0175439,2.973685 1.6491228,3.614065 1.2807017,4.245605 1.0789473,4.982445 0.877193,5.71051 0.877193,6.5 z M 5,6.5 Q 5,6.193005 5.1140351,5.921045 5.2368421,5.64915 5.4385965,5.44739 5.6403508,5.236855 5.9122807,5.12278 6.1929825,4.999995 6.5,4.999995 q 0.3070177,0 0.5789472,0.122785 Q 7.3508773,5.236855 7.5526314,5.44739 7.763158,5.64915 7.8771927,5.921045 7.9999998,6.193005 7.9999998,6.5 q 0,0.306995 -0.1228071,0.58773 Q 7.763158,7.359625 7.5526314,7.561385 7.3508773,7.763145 7.0789472,7.885995 6.8070177,8.000005 6.5,8.000005 q -0.3070175,0 -0.5877193,-0.11401 Q 5.6403508,7.763145 5.4385965,7.561385 5.2368421,7.359625 5.1140351,7.08773 5,6.806995 5,6.5 z m 4.1140348,4.535115 Q 8.5526318,11.35966 7.8947368,11.535095 7.2456143,11.71053 6.5,11.71053 q -0.745614,0 -1.4035088,-0.175435 Q 4.4473685,11.35966 3.885965,11.035115 L 5.5175438,8.201765 Q 5.736842,8.32455 5.9824561,8.39475 6.2280701,8.464885 6.5,8.464885 q 0.2719301,0 0.5175437,-0.070135 0.2456141,-0.0702 0.4649124,-0.192985 l 1.6315787,2.83335 z M 1.254386,6.5 Q 1.2719302,5.807035 1.4561403,5.15788 1.6491228,4.500015 2.0000001,3.90351 2.3421052,3.324555 2.8157895,2.83335 3.2894736,2.333305 3.885965,1.964885 L 5.5,4.78946 Q 5.0701754,5.052645 4.7982456,5.499975 4.5263158,5.94737 4.5263158,6.5 l -3.2719298,0 z m 7.219298,0 q 0,-0.55263 -0.2719294,-1.000025 Q 7.9298245,5.052645 7.5000003,4.78946 L 9.1140348,1.964885 q 0.5964913,0.377195 1.0789472,0.87724 0.482457,0.49998 0.824561,1.08771 0.342106,0.578955 0.526316,1.23682 Q 11.736842,5.81581 11.745614,6.5 l -3.27193,0 z"
     id="path17268"
     style="fill:#323232;fill-opacity:1;fill-rule:nonzero;stroke:none" />
  <metadata
     id="metadata17693">
    <rdf:RDF>
      <cc:Work
         rdf:about="">
        <dc:format>image/svg+xml</dc:format>
        <dc:type
           rdf:resource="http://purl.org/dc/dcmitype/StillImage" />
        <dc:title></dc:title>
      </cc:Work>
    </rdf:RDF>
  </metadata>
  <defs
     id="defs17691" />
  <rect
     width="5067"
     height="4685"
     x="-2040.6017"
     y="-2920.7881"
     id="rect16726"
     style="fill:none;stroke:#000000" />
</svg>
