<?xml version="1.0" encoding="UTF-8" standalone="no"?>
<svg
   xmlns:dc="http://purl.org/dc/elements/1.1/"
   xmlns:cc="http://creativecommons.org/ns#"
   xmlns:rdf="http://www.w3.org/1999/02/22-rdf-syntax-ns#"
   xmlns:svg="http://www.w3.org/2000/svg"
   xmlns="http://www.w3.org/2000/svg"
   version="1.1"
   id="svg4222"
   viewBox="0 0 758.26426 78.00003"
   height="22.013342mm"
   width="213.99902mm">
  <defs
     id="defs4224" />
  <metadata
     id="metadata4227">
    <rdf:RDF>
      <cc:Work
         rdf:about="">
        <dc:format>image/svg+xml</dc:format>
        <dc:type
           rdf:resource="http://purl.org/dc/dcmitype/StillImage" />
        <dc:title></dc:title>
      </cc:Work>
    </rdf:RDF>
  </metadata>
  <g
     transform="translate(-0.7857121,-576.21935)"
     id="layer1">
    <g
       id="g5843">
      <g
         id="g5824">
        <path
           d="m 677.92827,641.46693 -0.24878,0 0,-0.97102 c 0.0601,-0.004 0.18037,-0.007 0.24878,-0.007 0.62611,0 0.69452,0.1521 0.69452,0.48347 0,0.35351 -0.15652,0.49442 -0.69452,0.49442 z m 1.44606,-0.51547 c 0,-0.6873 -0.35072,-1.03107 -1.44606,-1.03107 -0.3172,0 -0.73218,0.0251 -0.982,0.0587 l 0,3.05689 0.73322,0 0,-1.03241 0.32411,0 0.56045,1.03241 0.87593,0 -0.72355,-1.17927 c 0.36869,-0.14792 0.6579,-0.46377 0.6579,-0.90526"
           style="fill:#231f20;fill-opacity:1;fill-rule:nonzero;stroke:none"
           id="path14" />
        <path
           d="m 678.1197,643.99174 c -1.7826,0 -2.4868,-0.66785 -2.4868,-2.4858 0,-1.81609 0.7042,-2.47706 2.4868,-2.47706 1.7591,0 2.48714,0.66097 2.48714,2.47706 0,1.81795 -0.72804,2.4858 -2.48714,2.4858 z m 0,-5.56066 c -2.04694,0 -3.08492,1.04078 -3.08492,3.07486 0,2.03864 1.03798,3.0836 3.08492,3.0836 2.03553,0 3.07938,-1.04496 3.07938,-3.0836 0,-2.03408 -1.04385,-3.07486 -3.07938,-3.07486"
           style="fill:#231f20;fill-opacity:1;fill-rule:nonzero;stroke:none"
           id="path16" />
        <path
           d="m 475.23574,610.68481 c 0,-0.51415 0.11176,-0.6261 0.63019,-0.6261 l 20.10999,0 c 0.5183,0 0.63008,0.11195 0.63008,0.6261 l 0,6.0565 c 0,0.51277 -0.11178,0.62887 -0.63008,0.62887 l -12.45711,0 0,7.36986 10.40119,0 c 0.51346,0 0.63008,0.11472 0.63008,0.62884 l 0,5.94357 c 0,0.51277 -0.11662,0.63018 -0.63008,0.63018 l -10.40119,0 0,11.42715 c 0,0.51411 -0.11095,0.62614 -0.62386,0.62614 l -7.02902,0 c -0.51843,0 -0.63019,-0.11203 -0.63019,-0.62614 l 0,-32.68497"
           style="fill:#231f20;fill-opacity:1;fill-rule:nonzero;stroke:none"
           id="path18" />
        <path
           d="m 500.43626,631.94263 c -0.51277,0 -0.62939,-0.11741 -0.62939,-0.63018 l 0,-5.94357 c 0,-0.51412 0.11662,-0.62884 0.62939,-0.62884 l 10.28326,0 c 0.5183,0 0.62921,0.11472 0.62921,0.62884 l 0,5.94357 c 0,0.51277 -0.11091,0.63018 -0.62921,0.63018 l -10.28326,0"
           style="fill:#231f20;fill-opacity:1;fill-rule:nonzero;stroke:none"
           id="path20" />
        <path
           d="m 522.89091,619.31069 c 0,2.23006 1.31475,2.68682 6.4003,4.17476 7.25894,2.11113 9.94581,4.91371 9.94581,10.56804 0,7.37159 -6.17502,10.51525 -13.20384,10.51525 -4.00092,0 -7.82562,-1.14444 -9.99902,-2.34164 -0.34243,-0.1717 -0.51347,-0.3438 -0.51347,-0.80202 l 0,-4.45699 c 0,-0.39667 0.11265,-0.51138 0.45922,-0.51138 0.74186,0 5.19784,1.25604 9.48038,1.25604 3.83092,0 5.60453,-0.91227 5.60453,-3.20212 0,-2.28293 -1.60396,-2.91177 -6.118,-4.11318 -7.59929,-2.05834 -10.16867,-4.85539 -10.16867,-10.5139 0,-6.68533 5.37406,-10.39774 11.94437,-10.39774 3.82331,0 6.91099,0.79922 9.8805,2.3403 0.40116,0.23358 0.51865,0.3438 0.51865,0.80336 l 0,4.45288 c 0,0.4022 -0.22944,0.51553 -0.51865,0.51553 -0.97233,0 -4.96668,-1.25601 -9.42717,-1.25601 -3.08698,0 -4.28494,1.20004 -4.28494,2.96882"
           style="fill:#231f20;fill-opacity:1;fill-rule:nonzero;stroke:none"
           id="path22" />
        <path
           d="m 550.60469,628.79625 9.14314,0 c 0,-3.71244 -1.20003,-5.19605 -4.28426,-5.19605 -2.80434,0 -4.68957,1.48361 -4.85888,5.19605 z m 0.0587,4.57278 c 0.28299,3.65646 2.2857,4.68887 6.68122,4.68887 4.40312,0 7.71885,-1.08981 8.51427,-1.08981 0.34726,0 0.5183,0.0574 0.5183,0.51696 l 0,4.22793 c 0,0.51412 -0.22978,0.62842 -0.62991,0.79918 -2.39903,1.02834 -5.82913,2.05658 -9.94166,2.05658 -8.40024,0 -13.2567,-3.82812 -13.2567,-13.19893 0,-8.85669 4.79772,-13.65721 12.91462,-13.65721 9.14072,0 11.99793,5.4863 11.99793,12.91255 l 0,2.11815 c 0,0.51384 -0.11161,0.62573 -0.62991,0.62573 l -16.16816,0"
           style="fill:#231f20;fill-opacity:1;fill-rule:nonzero;stroke:none"
           id="path24" />
        <path
           d="m 583.68875,617.7126 c 3.25906,0 6.51225,0.97233 8.68634,1.99925 0.51277,0.22905 0.57151,0.34515 0.57151,0.85937 l 0,4.1032 c 0,0.28642 -0.0587,0.51412 -0.40254,0.51412 -0.79922,0 -3.88206,-0.95951 -7.48251,-0.95951 -4.46048,0 -6.11593,2.39727 -6.11593,6.91173 0,4.51258 1.65545,6.91714 6.11593,6.91714 3.60045,0 6.91238,-1.09264 7.71436,-1.09264 0.34104,0 0.40116,0.22919 0.40116,0.5156 l 0,4.23212 c 0,0.51412 -0.0601,0.62842 -0.57151,0.85613 -2.17409,1.02837 -5.65775,1.99963 -8.91681,1.99963 -8.85566,0 -12.91601,-5.48398 -12.91601,-13.42798 0,-7.94186 4.06035,-13.42816 12.91601,-13.42816"
           style="fill:#231f20;fill-opacity:1;fill-rule:nonzero;stroke:none"
           id="path26" />
        <path
           d="m 609.52077,644.56874 c -7.02745,0 -12.34519,-2.22734 -12.34519,-10.45789 l 0,-15.32261 c 0,-0.51415 0.11471,-0.62714 0.63163,-0.62714 l 6.85433,0 c 0.51761,0 0.62818,0.11299 0.62818,0.62714 l 0,14.24254 c 0,3.48612 1.14268,5.02712 4.62668,5.02712 1.43189,0 2.8579,-0.056 3.9484,-0.169 l 0,-19.10066 c 0,-0.51415 0.11161,-0.62714 0.62369,-0.62714 l 6.85778,0 c 0.51277,0 0.62714,0.11299 0.62714,0.62714 l 0,23.72392 c 0,0.51412 -0.056,0.57148 -0.45541,0.68444 -3.36963,0.79932 -7.88367,1.37214 -11.99723,1.37214"
           style="fill:#231f20;fill-opacity:1;fill-rule:nonzero;stroke:none"
           id="path28" />
        <path
           d="m 639.57208,624.398 c -1.4851,0 -2.9118,0.17169 -3.7708,0.51277 l 0,18.45901 c 0,0.51411 -0.11195,0.62614 -0.62472,0.62614 l -6.85709,0 c -0.51554,0 -0.63164,-0.11203 -0.63164,-0.62614 l 0,-22.8574 c 0,-0.39964 0.17208,-0.57148 0.5183,-0.68471 3.08077,-1.2001 6.33776,-2.11507 9.99833,-2.11507 2.16684,0 4.28634,0.17173 6.17087,0.74186 0.34104,0.11575 0.40116,0.23047 0.40116,0.57289 l 0,5.14298 c 0,0.51273 -0.17311,0.56971 -0.51968,0.56971 -0.62334,0 -2.11535,-0.34204 -4.68473,-0.34204"
           style="fill:#231f20;fill-opacity:1;fill-rule:nonzero;stroke:none"
           id="path30" />
        <path
           d="m 654.54539,628.79625 9.14314,0 c 0,-3.71244 -1.20004,-5.19605 -4.28806,-5.19605 -2.79709,0 -4.68473,1.48361 -4.85508,5.19605 z m 0.0587,4.57278 c 0.28092,3.65646 2.2857,4.68887 6.68122,4.68887 4.40105,0 7.7192,-1.08981 8.51289,-1.08981 0.34518,0 0.51277,0.0574 0.51277,0.51696 l 0,4.22793 c 0,0.51412 -0.22218,0.62842 -0.62162,0.79918 -2.40456,1.02834 -5.82913,2.05658 -9.94235,2.05658 -8.40094,0 -13.25774,-3.82812 -13.25774,-13.19893 0,-8.85669 4.79668,-13.65721 12.91117,-13.65721 9.14452,0 12.00173,5.4863 12.00173,12.91255 l 0,2.11815 c 0,0.51384 -0.11748,0.62573 -0.62887,0.62573 l -16.1692,0"
           style="fill:#231f20;fill-opacity:1;fill-rule:nonzero;stroke:none"
           id="path32" />
        <path
           d="m 758.78947,583.50798 c -26.12434,-9.11273 -53.56861,-9.52219 -77.83088,-2.11466 -5.17607,1.58047 -6.57375,5.95146 -5.66604,9.63691 1.38628,5.62769 3.40902,12.04492 5.85954,17.90169 0.0453,0.10781 0.11126,0.0567 0.0957,-0.0881 -0.30476,-2.74214 1.74944,-6.19471 5.89445,-7.4521 22.96513,-6.96594 43.00602,-5.25451 60.87869,0.80682 3.01374,1.02209 6.38268,-0.59293 7.34084,-3.69478 2.43912,-7.88644 3.44324,-13.24945 3.68165,-14.57076 0.0449,-0.25432 -0.15169,-0.38942 -0.25396,-0.42501"
           style="fill:#231f20;fill-opacity:1;fill-rule:nonzero;stroke:none"
           id="path34" />
        <path
           d="m 698.32161,600.81675 c -3.02652,0.63958 -7.19434,1.62227 -10.29135,2.68133 -6.2341,2.13297 -5.97149,9.71188 -2.62501,12.1396 0.22944,-1.41081 1.7287,-3.3223 3.40834,-3.97052 6.25725,-2.41735 12.91186,-3.91523 19.68395,-4.49089 -3.41282,-1.40286 -6.79835,-3.40315 -10.17593,-6.35952"
           style="fill:#231f20;fill-opacity:1;fill-rule:nonzero;stroke:none"
           id="path36" />
        <path
           d="m 747.96497,616.0378 c -18.0337,-8.63486 -39.72381,-9.25854 -57.60962,-2.30401 -2.94393,1.14475 -4.81879,4.74796 -2.94255,8.17288 2.99058,5.45983 6.73685,11.26813 11.00763,16.81839 -0.59086,-2.04403 0.45887,-5.83463 4.45564,-7.06601 11.00072,-3.39216 22.59265,-1.9555 30.30252,1.15471 2.1848,0.88179 5.21927,0.36211 6.96697,-2.24244 3.81261,-5.68201 7.2479,-12.52148 8.00461,-14.06048 0.10504,-0.20525 0.004,-0.38285 -0.1852,-0.47304"
           style="fill:#231f20;fill-opacity:1;fill-rule:nonzero;stroke:none"
           id="path38" />
        <path
           d="m 730.0605,643.21698 c -1.96158,-0.56215 -6.84638,-4.3996 -8.73886,-6.29315 -1.19796,-1.19627 -2.94498,-2.90178 -4.81189,-4.94595 -4.19995,0 -8.30729,0.43433 -12.68726,1.81577 -4.02442,1.26876 -4.41798,5.99326 -2.653,8.4113 3.0317,3.73863 5.11353,5.78456 8.47971,9.2538 3.51407,3.62107 9.76614,3.71339 13.38041,0.0784 2.63399,-2.65128 4.24556,-4.38868 7.21368,-7.74964 0.16517,-0.18804 0.1085,-0.48617 -0.18279,-0.57055"
           style="fill:#231f20;fill-opacity:1;fill-rule:nonzero;stroke:none"
           id="path40" />
      </g>
      <g
         id="g5794">
        <g
           style="display:inline;overflow:visible;visibility:visible;fill:#231f20;fill-opacity:1;fill-rule:evenodd;stroke:#231f20;stroke-width:1pt;stroke-opacity:1;marker:none"
           id="g3278"
           transform="matrix(0.81998177,0,0,0.8194949,247.61955,607.31149)">
          <path
             style="display:inline;overflow:visible;visibility:visible;fill:#231f20;fill-opacity:1;fill-rule:evenodd;stroke:#231f20;stroke-width:1pt;stroke-opacity:1;marker:none"
             id="path3280"
             d="m 27.541,17.075 c 0.134,0.252 0.148,0.896 0.027,1.282 0,0 0.133,0.253 0.133,0.253 0,0 -0.133,-0.253 -0.133,-0.253 0.121,-0.386 0.107,-1.03 -0.027,-1.282 z M 0.534,0.132 C 0.534,0.132 0.788,0 0.788,0 1.818,0.11 2.847,0.218 3.876,0.327 2.847,0.218 1.818,0.11 0.788,0 0.788,0 0.534,0.132 0.534,0.132 Z M 0.00583073,12.945566 C 0.00583073,12.945566 0,12.718 0,12.718 0,12.718 0.534,0.132 0.534,0.132 0.534,0.132 0.788,0 0.788,0 c 1.03,0.11 2.059,0.218 3.088,0.327 13.118,1.549 23.257,8.544 23.665,16.748 0.134,0.252 0.148,0.896 0.027,1.282 0,0 0.133,0.253 0.133,0.253 -0.47,2.192 -1.078,4.126 -2.58,6.206 C 21.41,18.345 11.565831,13.369566 0.00583073,12.945566 Z" />
        </g>
        <path
           style="display:inline;overflow:visible;visibility:visible;fill:#231f20;fill-opacity:1;fill-rule:evenodd;stroke:#231f20;stroke-width:1.02655292;stroke-miterlimit:4;stroke-dasharray:none;stroke-opacity:1;marker:none"
           id="path3287"
           d="m 245.66237,653.51545 c -19.69185,-1.1014 -34.98863,-14.58783 -34.126,-30.16479 0.86589,-15.5745 17.4738,-27.45309 37.05907,-26.55984 0,0 -0.53789,10.62885 -0.53789,10.62885 -12.32271,-0.71459 -22.69956,6.84115 -23.35554,16.73573 -0.44774,9.78723 9.28464,18.22557 21.60731,18.94017 0,0 0.20915,-0.10896 0.20915,-0.10896 19.69517,1.10222 36.25469,-7.8311 37.07878,-19.93668 0,0 -0.64451,10.41988 -0.64451,10.41988 -0.5084,12.2072 -17.27703,21.24869 -36.97216,20.14483 0,0 -0.31825,-0.0992 -0.31825,-0.0992" />
        <g
           style="display:inline;overflow:visible;visibility:visible;fill:#231f20;fill-opacity:1;fill-rule:evenodd;stroke:none;stroke-width:1pt;marker:none"
           id="g3290"
           transform="matrix(0.81998177,0,0,0.8194949,0.7857121,609.0644)">
          <path
             style="display:inline;overflow:visible;visibility:visible;fill:#231f20;fill-opacity:1;fill-rule:evenodd;stroke:none;stroke-width:1pt;marker:none"
             id="path3292"
             d="m 6.8955,0 c 0,0 0,36.442 0,36.442 0,0 -6.8955,0 -6.8955,0 C 0,36.442 0,0 0,0 0,0 6.8955,0 6.8955,0" />
        </g>
        <g
           style="display:inline;overflow:visible;visibility:visible;fill:#231f20;fill-opacity:1;fill-rule:evenodd;stroke:none;stroke-width:1pt;marker:none"
           id="g3294"
           transform="matrix(0.81998177,0,0,0.8194949,16.238034,609.0644)">
          <path
             style="display:inline;overflow:visible;visibility:visible;fill:#231f20;fill-opacity:1;fill-rule:evenodd;stroke:none;stroke-width:1pt;marker:none"
             id="path3296"
             d="m 33.8069,0 c 0,0 0,36.442 0,36.442 0,0 -11.7053,0 -11.7053,0 0,0 -10.4233,-20.012 -10.4233,-20.012 -0.5147,-0.999 -1.3262,-2.743 -2.4292,-5.239 0,0 -1.1763,-2.613 -1.1763,-2.613 0,0 -1.1499,-2.608 -1.1499,-2.608 0,0 -0.2666,0 -0.2666,0 0,0 0.1079,2.393 0.1079,2.393 0,0 0.0791,2.374 0.0791,2.374 0,0 0.0542,4.782 0.0542,4.782 0,0 0,20.923 0,20.923 0,0 -6.8975,0 -6.8975,0 C 0,36.442 0,0 0,0 c 0,0 11.7037,0 11.7037,0 0,0 9.4868,18.459 9.4868,18.459 0.8379,1.638 1.8076,3.629 2.9126,5.958 0,0 1.3891,2.968 1.3891,2.968 0,0 1.3911,2.992 1.3911,2.992 0,0 0.2378,0 0.2378,0 0,0 -0.0796,-2.355 -0.0796,-2.355 0,0 -0.0795,-2.347 -0.0795,-2.347 0,0 -0.0538,-4.706 -0.0538,-4.706 0,0 0,-20.969 0,-20.969 0,0 6.8987,0 6.8987,0" />
        </g>
        <g
           style="display:inline;overflow:visible;visibility:visible;fill:#231f20;fill-opacity:1;fill-rule:evenodd;stroke:none;stroke-width:1pt;marker:none"
           id="g3298"
           transform="matrix(0.81998177,0,0,0.8194949,50.923174,609.0644)">
          <path
             style="display:inline;overflow:visible;visibility:visible;fill:#231f20;fill-opacity:1;fill-rule:evenodd;stroke:none;stroke-width:1pt;marker:none"
             id="path3300"
             d="m 26.692,0 c 0,0 7.315,0 7.315,0 0,0 -11.745,36.442 -11.745,36.442 0,0 -10.624,0 -10.624,0 C 11.638,36.442 0,0 0,0 c 0,0 7.179,0 7.179,0 0,0 6.834,20.624 6.834,20.624 0.641,1.978 1.594,5.29 2.859,9.938 0,0 0.186,0 0.186,0 0,0 0.693,-2.483 0.693,-2.483 0.854,-3.099 1.584,-5.575 2.189,-7.427 0,0 6.752,-20.652 6.752,-20.652" />
        </g>
        <g
           style="display:inline;overflow:visible;visibility:visible;fill:#231f20;fill-opacity:1;fill-rule:evenodd;stroke:none;stroke-width:1pt;marker:none"
           id="g3302"
           transform="matrix(0.81998177,0,0,0.8194949,85.180357,609.0644)">
          <path
             style="display:inline;overflow:visible;visibility:visible;fill:#231f20;fill-opacity:1;fill-rule:evenodd;stroke:none;stroke-width:1pt;marker:none"
             id="path3304"
             d="m 6.898,5.789 c 0,0 0,9.451 0,9.451 0,0 17.117,0 17.117,0 0,0 0,5.109 0,5.109 0,0 -17.117,0 -17.117,0 0,0 0,10.301 0,10.301 0,0 18.224,0 18.224,0 0,0 0,5.792 0,5.792 0,0 -25.122,0 -25.122,0 C 0,36.442 0,0 0,0 c 0,0 24.951,0 24.951,0 0,0 0,5.789 0,5.789 0,0 -18.053,0 -18.053,0" />
        </g>
        <g
           style="display:inline;overflow:visible;visibility:visible;fill:#231f20;fill-opacity:1;fill-rule:evenodd;stroke:none;stroke-width:1pt;marker:none"
           id="g3306"
           transform="matrix(0.81998177,0,0,0.8194949,114.50949,609.0644)">
          <path
             style="display:inline;overflow:visible;visibility:visible;fill:#231f20;fill-opacity:1;fill-rule:evenodd;stroke:none;stroke-width:1pt;marker:none"
             id="path3308"
             d="M 0,36.442 C 0,36.442 0,0 0,0 c 0,0 17.939,0 17.939,0 4.47,0 7.55,0.771 9.24,2.316 1.691,1.545 2.539,4.342 2.539,8.39 0,3.677 -0.424,6.188 -1.27,7.54 -0.848,1.346 -2.58,2.281 -5.204,2.794 0,0 0,0.24 0,0.24 4.031,0.25 6.046,2.609 6.046,7.083 0,0 0,8.079 0,8.079 0,0 -6.894,0 -6.894,0 0,0 0,-6.682 0,-6.682 0,-3.774 -1.851,-5.663 -5.549,-5.663 0,0 -9.949,0 -9.949,0 0,0 0,12.345 0,12.345 0,0 -6.898,0 -6.898,0 l 0,0 z M 6.898,18.306 c 0,0 9.922,0 9.922,0 2.384,0 3.967,-0.419 4.745,-1.267 0.782,-0.846 1.169,-2.54 1.169,-5.088 0,-2.595 -0.336,-4.272 -1.008,-5.029 -0.673,-0.755 -2.148,-1.133 -4.427,-1.133 0,0 -10.401,0 -10.401,0 0,0 0,12.517 0,12.517 l 0,0 z" />
        </g>
        <g
           style="display:inline;overflow:visible;visibility:visible;fill:#231f20;fill-opacity:1;fill-rule:evenodd;stroke:none;stroke-width:1pt;marker:none"
           id="g3310"
           transform="matrix(0.81998177,0,0,0.8194949,146.63557,608.78249)">
          <path
             style="display:inline;overflow:visible;visibility:visible;fill:#231f20;fill-opacity:1;fill-rule:evenodd;stroke:none;stroke-width:1pt;marker:none"
             id="path3312"
             d="m 28.539,10.985 c 0,0 -6.756,0 -6.756,0 C 21.747,10.645 21.73,10.389 21.73,10.229 21.567,8.162 21.116,6.861 20.365,6.33 19.619,5.803 17.857,5.535 15.079,5.535 11.804,5.535 9.664,5.841 8.658,6.446 7.65,7.051 7.146,8.326 7.146,10.27 c 0,2.3 0.411,3.683 1.232,4.146 0.821,0.465 3.533,0.819 8.134,1.068 5.438,0.307 8.955,1.082 10.553,2.333 1.596,1.246 2.394,3.84 2.394,7.785 0,4.848 -0.936,7.982 -2.809,9.398 -1.87,1.418 -5.997,2.128 -12.376,2.128 -5.737,0 -9.547,-0.695 -11.429,-2.08 C 0.966,33.658 0.027,30.853 0.027,26.622 0.027,26.622 0,25.29 0,25.29 c 0,0 6.728,0 6.728,0 0,0 0.025,0.778 0.025,0.778 0,2.543 0.447,4.102 1.341,4.668 0.891,0.571 3.331,0.856 7.316,0.856 3.107,0 5.092,-0.329 5.949,-0.989 0.857,-0.661 1.287,-2.186 1.287,-4.576 0,-1.764 -0.324,-2.933 -0.978,-3.512 -0.649,-0.581 -2.053,-0.936 -4.209,-1.063 0,0 -3.819,-0.242 -3.819,-0.242 C 7.863,20.873 4.174,20.076 2.572,18.805 0.966,17.541 0.165,14.819 0.165,10.649 0.165,6.385 1.13,3.547 3.057,2.128 4.983,0.711 8.835,0 14.608,0 c 5.475,0 9.161,0.65 11.064,1.955 1.899,1.304 2.851,3.85 2.851,7.635 0,0 0.016,1.395 0.016,1.395" />
        </g>
        <g
           style="display:inline;overflow:visible;visibility:visible;fill:#231f20;fill-opacity:1;fill-rule:evenodd;stroke:none;stroke-width:1pt;marker:none"
           id="g3314"
           transform="matrix(0.81998177,0,0,0.8194949,178.59765,609.0644)">
          <path
             style="display:inline;overflow:visible;visibility:visible;fill:#231f20;fill-opacity:1;fill-rule:evenodd;stroke:none;stroke-width:1pt;marker:none"
             id="path3316"
             d="m 6.9,5.789 c 0,0 0,9.451 0,9.451 0,0 17.12,0 17.12,0 0,0 0,5.109 0,5.109 0,0 -17.12,0 -17.12,0 0,0 0,10.301 0,10.301 0,0 18.227,0 18.227,0 0,0 0,5.792 0,5.792 0,0 -25.127,0 -25.127,0 C 0,36.442 0,0 0,0 c 0,0 24.956,0 24.956,0 0,0 0,5.789 0,5.789 0,0 -18.056,0 -18.056,0" />
        </g>
        <g
           style="display:inline;overflow:visible;visibility:visible;fill:#ffffff;fill-opacity:1;fill-rule:evenodd;stroke:#231f20;stroke-width:1pt;stroke-linecap:butt;stroke-linejoin:miter;stroke-miterlimit:4;stroke-dasharray:none;stroke-dashoffset:0;stroke-opacity:1;marker:none"
           id="g3274"
           transform="matrix(0.81998177,0,0,0.8194949,211.53626,587.79532)">
          <path
             style="display:inline;overflow:visible;visibility:visible;fill:#ffffff;fill-opacity:1;fill-rule:evenodd;stroke:#231f20;stroke-width:1pt;stroke-linecap:butt;stroke-linejoin:miter;stroke-miterlimit:4;stroke-dasharray:none;stroke-dashoffset:0;stroke-opacity:1;marker:none"
             id="path3276"
             d="m 45.911,1.2129 c 0,0 -0.716,9.764 -0.716,9.764 C 21.31,9.8869 1.056,24.3819 0,43.3869 c 0,0 0.329,-9.884 0.329,-9.884 C 1.38,14.4959 21.637,0 45.911,1.2129" />
        </g>
        <g
           style="display:inline;overflow:visible;visibility:visible;fill:#ffffff;fill-opacity:1;fill-rule:evenodd;stroke:#231f20;stroke-width:1pt;stroke-linecap:butt;stroke-linejoin:miter;stroke-miterlimit:4;stroke-dasharray:none;stroke-dashoffset:0;stroke-opacity:1;marker:none"
           id="g3282"
           transform="matrix(0.81998177,0,0,0.8194949,224.61329,599.20998)">
          <path
             style="display:inline;overflow:visible;visibility:visible;fill:#ffffff;fill-opacity:1;fill-rule:evenodd;stroke:#231f20;stroke-width:1pt;stroke-linecap:butt;stroke-linejoin:miter;stroke-miterlimit:4;stroke-dasharray:none;stroke-dashoffset:0;stroke-opacity:1;marker:none"
             id="path3284"
             d="m 0,31.469 c -0.04446829,0.508772 0.07516944,-0.716198 0.108,-1.029 0.352,-1.803 0.448,-3.472 0.935,-5.021 2.488,9.704 13.026,17.46 25.742,18.247 0.621798,0.03408 0.370016,0.01609 0.370016,0.01609 C 42.440016,44.420093 55.286,37.485 55.625,28.243 56.216,18.867 44.264,10.879 28.845,9.886 c 0,0 -0.254,0.132 -0.254,0.132 0,0 0.582,-10.018 0.582,-10.018 0,0 0.387,0.123 0.387,0.123 18.099,1.011 33.325,8.49 39.475,18.482 0,0 1.375,2.631 1.375,2.631 1.096,2.512 1.638,5.142 1.523,7.855 -1.005,14.772 -21.307907,25.816876 -45.326907,24.471876 0,0 -0.147093,-0.01088 -0.147093,-0.01088 C 11.685,52.544 0.47,42.878 0,31.469" />
        </g>
        <g
           style="fill:#231f20;fill-opacity:1;fill-rule:evenodd;stroke:none"
           id="g3318"
           transform="matrix(0.81998177,0,0,0.8194949,293.38275,609.0644)">
          <path
             style="fill:#231f20;fill-opacity:1"
             id="path3320"
             d="M 0,36.442 C 0,36.442 0,0 0,0 c 0,0 14.664,0 14.664,0 0,0 1.815,0 1.815,0 4.931,0 8.262,0.856 9.98,2.576 1.719,1.719 2.576,5.036 2.576,9.955 0,4.881 -0.82,8.128 -2.461,9.728 -1.637,1.605 -4.947,2.408 -9.935,2.408 0,0 -1.6,0.027 -1.6,0.027 0,0 -8.145,0 -8.145,0 0,0 0,11.748 0,11.748 0,0 -6.894,0 -6.894,0 l 0,0 z m 6.894,-17.54 c 0,0 7.875,0 7.875,0 3.155,0 5.156,-0.365 6.004,-1.092 0.854,-0.724 1.28,-2.439 1.28,-5.145 0,-3.097 -0.355,-5.018 -1.064,-5.765 -0.708,-0.739 -2.55,-1.111 -5.524,-1.111 0,0 -8.571,0 -8.571,0 0,0 0,13.113 0,13.113 l 0,0 z" />
        </g>
        <path
           style="fill:#231f20;fill-opacity:1;fill-rule:evenodd;stroke-width:1pt;stroke-linecap:butt;stroke-linejoin:miter;stroke-dasharray:none"
           id="path3324"
           d="m 343.32609,633.20836 c 0,0 -12.89341,0 -12.89341,0 0,0 -1.86054,5.72008 -1.86054,5.72008 0,0 -5.99651,0 -5.99651,0 0,0 9.93655,-29.86404 9.93655,-29.86404 0,0 8.51386,0 8.51386,0 0,0 10.09069,29.86404 10.09069,29.86404 0,0 -5.8891,0 -5.8891,0 0,0 -1.90154,-5.72008 -1.90154,-5.72008 z m -1.31279,-4.18762 c 0,0 -5.16506,-15.56794 -5.16506,-15.56794 0,0 -5.07815,15.56794 -5.07815,15.56794 0,0 10.24321,0 10.24321,0 z" />
        <g
           style="display:inline;overflow:visible;visibility:visible;fill:#231f20;fill-opacity:1;fill-rule:evenodd;stroke:none;stroke-width:1pt;marker:none"
           id="g3326"
           transform="matrix(0.81998177,0,0,0.8194949,355.80226,609.0644)">
          <path
             style="display:inline;overflow:visible;visibility:visible;fill:#231f20;fill-opacity:1;fill-rule:evenodd;stroke:none;stroke-width:1pt;marker:none"
             id="path3328"
             d="m 17.456,6.213 c 0,0 0,30.229 0,30.229 0,0 -6.899,0 -6.899,0 0,0 0,-30.229 0,-30.229 0,0 -10.557,0 -10.557,0 C 0,6.213 0,0 0,0 c 0,0 28.353,0 28.353,0 0,0 0,6.213 0,6.213 0,0 -10.897,0 -10.897,0" />
        </g>
        <g
           style="display:inline;overflow:visible;visibility:visible;fill:#231f20;fill-opacity:1;fill-rule:evenodd;stroke:none;stroke-width:1pt;marker:none"
           id="g3330"
           transform="matrix(0.81998177,0,0,0.8194949,386.44007,609.0644)">
          <path
             style="display:inline;overflow:visible;visibility:visible;fill:#231f20;fill-opacity:1;fill-rule:evenodd;stroke:none;stroke-width:1pt;marker:none"
             id="path3332"
             d="m 30.91,0 c 0,0 0,36.442 0,36.442 0,0 -6.898,0 -6.898,0 0,0 0,-15.753 0,-15.753 0,0 -17.114,0 -17.114,0 0,0 0,15.753 0,15.753 0,0 -6.898,0 -6.898,0 C 0,36.442 0,0 0,0 c 0,0 6.898,0 6.898,0 0,0 0,14.898 0,14.898 0,0 17.114,0 17.114,0 0,0 0,-14.898 0,-14.898 0,0 6.898,0 6.898,0" />
        </g>
      </g>
      <g
         id="g5840">
        <rect
           y="576.71936"
           x="442.85712"
           height="77.500015"
           width="2.1428397"
           id="rect5618"
           style="opacity:1;fill:#231f20;fill-opacity:1;fill-rule:nonzero;stroke:none;stroke-width:0.001;stroke-miterlimit:4;stroke-dasharray:none;stroke-opacity:1" />
      </g>
    </g>
  </g>
</svg>
