<?xml version="1.0" encoding="UTF-8" standalone="no"?>
<svg
   xmlns="http://www.w3.org/2000/svg"
   version="1.1"
   width="25"
   height="25">
  <g
     transform="translate(-124.64286,-265.57647)"
     id="layer1">
    <path
       d="m 126.64286,265.57647 0,2 -2,0 0,21 2,0 0,2 21,0 0,-2 2,0 0,-21 -2,0 0,-2 z m 7,4 7,0 0,2 2,0 0,1 0,3 1,0 0,9 -1,0 0,1 -1,0 0,1 -9,0 0,-1 -1,0 0,-1 -1,0 0,-9 1,0 0,-3 0,-1 2,0 z m 1,2 0,1 -1,0 0,3 7,0 0,-3 -1,0 0,-1 z m 2,9 0,3 1,0 0,-3 z"
       id="rect3180"
       style="color:#000000;fill:#000000;fill-opacity:1;fill-rule:nonzero;stroke:none;stroke-width:1;marker:none;visibility:visible;display:inline;overflow:visible;enable-background:accumulate" />
  </g>
</svg>
