<?xml version="1.0" encoding="UTF-8" standalone="no"?>
<svg
   xmlns="http://www.w3.org/2000/svg"
   version="1.1"
   width="25"
   height="25">
  <g
     transform="translate(-87.5,-191.29076)"
     id="layer1">
    <path
       d="m 89.5,191.29076 0,2 -2,0 0,21 2,0 0,2 21,0 0,-2 2,0 0,-21 -2,0 0,-2 z m 1,3 7,0 0,6 -3,0 0,3 11,0 0,-3 -3,0 0,-6 7,0 0,6 -3,0 0,3 0,1 -6,0 0,3 3,0 0,6 -7,0 0,-6 3,0 0,-3 -5,0 -1,0 0,-4 -3,0 z"
       id="rect3198"
       style="color:#000000;fill:#000000;fill-opacity:1;fill-rule:nonzero;stroke:none;stroke-width:1;marker:none;visibility:visible;display:inline;overflow:visible;enable-background:accumulate" />
  </g>
</svg>
