<?xml version="1.0" encoding="UTF-8" standalone="no"?>
<svg
   xmlns:dc="http://purl.org/dc/elements/1.1/"
   xmlns:cc="http://creativecommons.org/ns#"
   xmlns:rdf="http://www.w3.org/1999/02/22-rdf-syntax-ns#"
   xmlns:svg="http://www.w3.org/2000/svg"
   xmlns="http://www.w3.org/2000/svg"
   xmlns:sodipodi="http://sodipodi.sourceforge.net/DTD/sodipodi-0.dtd"
   xmlns:inkscape="http://www.inkscape.org/namespaces/inkscape"
   width="190.9886"
   height="72.205284"
   version="1.1"
   id="svg2"
   inkscape:version="0.48.4 r9939"
   sodipodi:docname="open_logo.svg">
  <metadata
     id="metadata48">
    <rdf:RDF>
      <cc:Work
         rdf:about="">
        <dc:format>image/svg+xml</dc:format>
        <dc:type
           rdf:resource="http://purl.org/dc/dcmitype/StillImage" />
      </cc:Work>
    </rdf:RDF>
  </metadata>
  <defs
     id="defs46" />
  <sodipodi:namedview
     pagecolor="#ffffff"
     bordercolor="#666666"
     borderopacity="1"
     objecttolerance="10"
     gridtolerance="10"
     guidetolerance="10"
     inkscape:pageopacity="0"
     inkscape:pageshadow="2"
     inkscape:window-width="1280"
     inkscape:window-height="800"
     id="namedview44"
     showgrid="false"
     inkscape:zoom="1.963468"
     inkscape:cx="95.494301"
     inkscape:cy="36.102642"
     inkscape:window-x="0"
     inkscape:window-y="0"
     inkscape:window-maximized="1"
     inkscape:current-layer="layer1" />
  <g
     inkscape:label="Layer 1"
     inkscape:groupmode="layer"
     id="layer1"
     transform="translate(79.742806,-287.73562)">
    <g
       transform="matrix(0.3313985,0,0,-0.3313985,-5.2635246,313.47203)"
       id="g3022"
       style="fill:#000000;fill-opacity:1;stroke:none">
      <path
         d="M 0,0 -2.12,0.395 C -2.661,0.494 -3.546,0.659 -4.087,0.76 l -18.075,3.362 c -0.541,0.101 -1.131,0.608 -1.311,1.128 l -6.795,15.849 c -0.253,0.489 -0.204,1.259 0.107,1.714 l 10.563,15.392 c 0.311,0.454 0.821,1.196 1.131,1.65 l 1.221,1.778 c 0.309,0.453 0.246,1.142 -0.143,1.531 l -1.524,1.524 -1.414,1.414 -4.419,4.419 -1.414,1.414 -4.417,4.419 -1.415,1.415 -1.525,1.524 c -0.388,0.389 -1.078,0.453 -1.531,0.142 l -1.778,-1.22 c -0.454,-0.312 -1.196,-0.82 -1.649,-1.132 l -15.722,-10.79 c -0.453,-0.312 -1.228,-0.367 -1.722,-0.125 l -15.365,6.289 c -0.522,0.173 -1.03,0.757 -1.132,1.297 l -3.505,18.838 c -0.1,0.541 -0.266,1.426 -0.365,1.966 l -0.396,2.12 c -0.1,0.54 -0.633,0.982 -1.182,0.982 h -2.156 -2 -6.25 -2 -6.25 -2 -2.155 c -0.55,0 -1.082,-0.442 -1.182,-0.983 l -0.395,-2.119 c -0.101,-0.54 -0.265,-1.425 -0.365,-1.966 l -3.506,-18.838 c -0.101,-0.54 -0.609,-1.124 -1.132,-1.297 l -15.365,-6.289 c -0.494,-0.242 -1.269,-0.187 -1.722,0.125 l -15.722,10.79 c -0.454,0.312 -1.196,0.82 -1.649,1.132 l -1.778,1.22 c -0.453,0.311 -1.143,0.247 -1.531,-0.142 l -1.525,-1.524 -1.414,-1.415 -4.419,-4.42 -1.414,-1.414 -4.418,-4.418 -1.414,-1.414 -1.524,-1.524 c -0.389,-0.389 -0.453,-1.078 -0.142,-1.531 l 1.22,-1.778 c 0.31,-0.454 0.82,-1.196 1.131,-1.65 l 10.563,-15.392 c 0.311,-0.455 0.359,-1.225 0.107,-1.714 L -155.065,5.25 c -0.181,-0.52 -0.771,-1.027 -1.312,-1.128 L -174.452,0.76 c -0.541,-0.101 -1.426,-0.266 -1.967,-0.365 L -178.539,0 c -0.541,-0.102 -0.983,-0.633 -0.983,-1.184 l 0.001,-2.156 v -2 -6.25 -2 -6.248 -2 -2.155 c 0,-0.55 0.443,-1.083 0.984,-1.183 l 2.119,-0.394 c 0.541,-0.101 1.426,-0.266 1.967,-0.367 l 17.531,-3.262 c 0.541,-0.1 1.119,-0.612 1.284,-1.137 l 6.748,-16.859 c 0.242,-0.493 0.185,-1.27 -0.127,-1.723 l -9.927,-14.466 c -0.312,-0.454 -0.822,-1.196 -1.132,-1.648 l -1.221,-1.78 c -0.31,-0.453 -0.247,-1.142 0.142,-1.531 l 1.525,-1.524 1.414,-1.414 4.421,-4.421 1.414,-1.414 4.417,-4.416 1.414,-1.415 1.526,-1.524 c 0.388,-0.388 1.078,-0.452 1.531,-0.141 l 1.777,1.219 c 0.453,0.311 1.195,0.821 1.649,1.131 l 14.152,9.712 c 0.453,0.311 1.212,0.336 1.685,0.058 l 2.938,-1.654 c 0.484,-0.26 1.281,-0.677 1.771,-0.927 l 3.043,-1.558 c 0.491,-0.25 1.063,-0.039 1.274,0.469 l 1.306,3.158 c 0.211,0.508 0.555,1.34 0.766,1.848 l 12.277,29.669 c 0.211,0.506 0.555,1.339 0.766,1.846 l 0.869,2.102 c 0.211,0.508 -10e-4,1.158 -0.47,1.445 l -1.94,1.187 c -0.358,0.218 -0.845,0.595 -1.226,0.939 -6.999,4.483 -11.641,12.323 -11.641,21.25 0,13.932 11.294,25.226 25.225,25.226 13.932,0 25.226,-11.294 25.226,-25.226 0,-8.928 -4.643,-16.767 -11.642,-21.25 -0.38,-0.344 -0.867,-0.72 -1.226,-0.939 l -1.939,-1.187 c -0.468,-0.287 -0.68,-0.937 -0.47,-1.445 l 0.87,-2.102 c 0.21,-0.508 0.554,-1.34 0.764,-1.846 l 12.277,-29.669 c 0.211,-0.508 0.555,-1.34 0.765,-1.848 l 1.308,-3.158 c 0.211,-0.508 0.783,-0.719 1.274,-0.469 l 3.042,1.558 c 0.492,0.25 1.288,0.667 1.772,0.927 l 2.937,1.654 c 0.474,0.278 1.233,0.253 1.686,-0.058 l 14.152,-9.712 c 0.453,-0.31 1.197,-0.82 1.648,-1.131 l 1.779,-1.219 c 0.453,-0.311 1.143,-0.247 1.531,0.141 l 1.524,1.524 1.415,1.415 4.417,4.418 1.414,1.414 4.421,4.419 1.414,1.414 1.526,1.524 c 0.388,0.388 0.452,1.078 0.141,1.531 l -1.221,1.78 c -0.311,0.452 -0.821,1.194 -1.132,1.648 l -9.928,14.466 c -0.311,0.453 -0.369,1.229 -0.127,1.723 l 6.748,16.859 c 0.166,0.525 0.744,1.037 1.284,1.137 l 17.532,3.262 c 0.541,0.101 1.426,0.266 1.967,0.367 l 2.118,0.394 c 0.541,0.1 0.983,0.633 0.983,1.183 v 2.155 2 6.248 2 l 0.001,6.25 v 2 l 0.001,2.156 C 0.983,-0.633 0.541,-0.102 0,0"
         inkscape:connector-curvature="0"
         id="path3024"
         style="fill:#000000;fill-opacity:1;stroke:none" />
    </g>
    <g
       transform="matrix(0.3313985,0,0,-0.3313985,-14.290249,313.47849)"
       id="g3026"
       style="fill:#ffffff;fill-opacity:1">
      <path
         d="m 0.001,0 c -1.75,8.039 -5.014,15.512 -9.491,22.096 l 13.574,19.783 -5.833,5.832 -5.833,5.835 -20.045,-13.757 c -6.511,4.207 -13.831,7.268 -21.687,8.865 l 0.002,10e-4 -4.469,24.025 h -8.249 -8.25 l -4.47,-24.025 0.003,-10e-4 c -7.856,-1.597 -15.177,-4.658 -21.688,-8.865 l -20.043,13.757 -5.834,-5.835 -5.833,-5.832 13.575,-19.783 C -119.049,15.512 -122.312,8.039 -124.062,0 l -23.22,-4.319 0.001,-8.251 v -8.248 l 22.791,-4.242 c 1.538,-8.419 4.74,-16.253 9.247,-23.158 l -12.903,-18.801 5.834,-5.833 5.833,-5.833 18.553,12.732 c 2.246,-1.541 4.592,-2.945 7.032,-4.193 l 13.043,31.516 c -8.728,5.336 -14.554,14.954 -14.554,25.935 0,16.775 13.6,30.375 30.376,30.375 16.773,0 30.374,-13.6 30.374,-30.375 0,-10.981 -5.825,-20.599 -14.555,-25.935 l 13.042,-31.516 c 2.44,1.248 4.786,2.652 7.032,4.193 l 18.554,-12.732 5.833,5.833 5.835,5.833 -12.904,18.801 c 4.506,6.905 7.709,14.739 9.248,23.158 l 22.791,4.242 v 8.248 8.251 L 0.001,0 z"
         inkscape:connector-curvature="0"
         id="path3028"
         style="fill:#ffffff;fill-opacity:1" />
    </g>
    <g
       id="g3841"
       enable-background="new    "
       transform="matrix(0.3277233,0,0,0.3277233,-150.31597,211.23646)"
       style="fill:#000000;fill-opacity:1">
      <path
         id="path3843"
         d="m 320.315,444.943 v -30.959 l 3.438,-1.504 v 9.84 c 1.346,-0.959 2.893,-1.439 4.641,-1.439 2.234,0 4.146,0.788 5.736,2.363 1.59,1.576 2.385,3.48 2.385,5.715 v 14.48 l -3.438,1.504 v -15.92 c -0.029,-1.332 -0.487,-2.435 -1.375,-3.309 -0.917,-0.902 -1.998,-1.354 -3.244,-1.354 -1.332,0 -2.449,0.451 -3.352,1.354 -0.888,0.889 -1.339,1.948 -1.354,3.18 v 0.129 14.416 l -3.437,1.504 z"
         inkscape:connector-curvature="0"
         style="fill:#000000;fill-opacity:1" />
      <path
         id="path3845"
         d="m 345.181,438.607 c 0,0.476 0.186,0.966 0.559,1.471 0.688,0.923 1.783,1.385 3.287,1.385 0.917,0 1.726,-0.215 2.428,-0.645 l 1.289,3.244 c -1.117,0.588 -2.356,0.881 -3.717,0.881 -2.148,0 -4.054,-0.787 -5.715,-2.363 -1.117,-1.146 -1.676,-2.463 -1.676,-3.953 0,-0.057 0,-0.114 0,-0.171 0,-2.67 1.37,-4.562 4.111,-5.675 l 8.736,-3.607 c 0,-1.36 -0.451,-2.503 -1.354,-3.427 -0.903,-0.924 -2.041,-1.386 -3.416,-1.386 -1.203,0 -2.263,0.451 -3.18,1.354 -0.888,0.874 -1.347,1.977 -1.375,3.309 v 0.301 l -3.438,1.525 v -1.891 c 0,-2.005 0.859,-3.924 2.578,-5.758 1.461,-1.547 3.309,-2.32 5.543,-2.32 2.234,0 4.14,0.788 5.715,2.363 1.575,1.576 2.363,3.48 2.363,5.715 v 14.48 l -3.438,1.504 v -12.054 l -7.085,2.883 c -1.476,0.707 -2.215,1.652 -2.215,2.835 z"
         inkscape:connector-curvature="0"
         style="fill:#000000;fill-opacity:1" />
      <path
         id="path3847"
         d="m 363.129,444.943 v -15.984 c 0,-2.234 0.787,-4.139 2.363,-5.715 1.574,-1.575 3.48,-2.363 5.715,-2.363 2.277,0 4.189,0.788 5.736,2.363 1.59,1.633 2.385,3.538 2.385,5.715 v 0.086 l -3.438,1.504 v -1.525 c -0.029,-1.332 -0.488,-2.435 -1.375,-3.309 -0.918,-0.902 -1.998,-1.354 -3.244,-1.354 -1.305,0 -2.414,0.451 -3.33,1.354 -0.918,0.902 -1.375,1.984 -1.375,3.244 0,0.029 0,0.051 0,0.064 v 14.416 l -3.437,1.504 z"
         inkscape:connector-curvature="0"
         style="fill:#000000;fill-opacity:1" />
      <path
         id="path3849"
         d="m 400.735,412.48 v 24.385 c 0,2.234 -0.795,4.14 -2.385,5.715 -1.59,1.576 -3.502,2.363 -5.736,2.363 -2.234,0 -4.139,-0.787 -5.715,-2.363 -1.575,-1.575 -2.363,-3.48 -2.363,-5.715 v -7.906 c 0,-2.234 0.788,-4.139 2.363,-5.715 1.576,-1.575 3.48,-2.363 5.715,-2.363 1.762,0 3.323,0.487 4.684,1.461 v -8.357 l 3.437,-1.505 z m -12.762,24.32 c 0,1.318 0.48,2.421 1.439,3.309 0.975,0.902 2.084,1.354 3.33,1.354 1.203,0 2.264,-0.451 3.18,-1.354 0.889,-0.873 1.347,-1.977 1.375,-3.309 v -7.777 c -0.028,-1.332 -0.486,-2.435 -1.375,-3.309 -0.916,-0.902 -2.062,-1.354 -3.438,-1.354 -1.203,0 -2.256,0.451 -3.158,1.354 -0.888,0.889 -1.339,1.948 -1.354,3.18 v 0.129 7.777 z"
         inkscape:connector-curvature="0"
         style="fill:#000000;fill-opacity:1" />
      <path
         id="path3851"
         d="m 404.052,439.078 v -16.693 l 3.438,-1.504 -0.021,18.111 c 0,0.717 0.236,1.325 0.709,1.826 0.473,0.502 1.031,0.752 1.676,0.752 0.673,0 1.246,-0.25 1.719,-0.752 0.487,-0.516 0.73,-1.117 0.73,-1.805 v -0.021 l 0.021,-16.607 3.438,-1.504 -0.021,18.111 c 0,0.717 0.236,1.325 0.709,1.826 0.473,0.502 1.031,0.752 1.676,0.752 0.659,0 1.231,-0.25 1.719,-0.752 0.487,-0.501 0.73,-1.109 0.73,-1.826 l 0.021,-16.607 3.438,-1.504 V 439.1 c 0,1.604 -0.573,2.979 -1.719,4.125 -1.146,1.146 -2.528,1.719 -4.146,1.719 -1.676,0 -3.058,-0.559 -4.146,-1.676 -1.146,1.117 -2.521,1.676 -4.125,1.676 -1.719,0 -3.115,-0.559 -4.189,-1.676 -1.091,-1.132 -1.642,-2.528 -1.657,-4.19 z"
         inkscape:connector-curvature="0"
         style="fill:#000000;fill-opacity:1" />
      <path
         id="path3853"
         d="m 430.809,438.607 c 0,0.476 0.186,0.966 0.559,1.471 0.688,0.923 1.783,1.385 3.287,1.385 0.916,0 1.726,-0.215 2.428,-0.645 l 1.289,3.244 c -1.117,0.588 -2.356,0.881 -3.717,0.881 -2.148,0 -4.054,-0.787 -5.715,-2.363 -1.117,-1.146 -1.676,-2.463 -1.676,-3.953 0,-0.057 0,-0.114 0,-0.171 0,-2.67 1.37,-4.562 4.111,-5.675 l 8.736,-3.607 c 0,-1.36 -0.451,-2.503 -1.354,-3.427 -0.903,-0.924 -2.041,-1.386 -3.416,-1.386 -1.203,0 -2.264,0.451 -3.18,1.354 -0.889,0.874 -1.347,1.977 -1.375,3.309 v 0.301 l -3.438,1.525 v -1.891 c 0,-2.005 0.859,-3.924 2.578,-5.758 1.461,-1.547 3.309,-2.32 5.543,-2.32 2.234,0 4.139,0.788 5.715,2.363 1.575,1.576 2.363,3.48 2.363,5.715 v 14.48 l -3.438,1.504 v -12.054 l -7.085,2.883 c -1.476,0.707 -2.215,1.652 -2.215,2.835 z"
         inkscape:connector-curvature="0"
         style="fill:#000000;fill-opacity:1" />
      <path
         id="path3855"
         d="m 448.757,444.943 v -15.984 c 0,-2.234 0.788,-4.139 2.363,-5.715 1.575,-1.575 3.48,-2.363 5.715,-2.363 2.277,0 4.189,0.788 5.736,2.363 1.59,1.633 2.385,3.538 2.385,5.715 v 0.086 l -3.438,1.504 v -1.525 c -0.028,-1.332 -0.487,-2.435 -1.375,-3.309 -0.917,-0.902 -1.998,-1.354 -3.244,-1.354 -1.304,0 -2.413,0.451 -3.33,1.354 -0.917,0.903 -1.375,1.984 -1.375,3.244 0,0.029 0,0.051 0,0.064 v 14.416 l -3.437,1.504 z"
         inkscape:connector-curvature="0"
         style="fill:#000000;fill-opacity:1" />
      <path
         id="path3857"
         d="m 478.372,441.463 c 1.203,0 2.262,-0.451 3.18,-1.354 0.887,-0.873 1.346,-1.977 1.375,-3.309 v -0.3 l 3.438,-1.525 v 1.891 c 0,2.006 -0.859,3.925 -2.578,5.758 -1.461,1.547 -3.309,2.32 -5.543,2.32 -2.234,0 -4.141,-0.787 -5.715,-2.363 -1.576,-1.575 -2.363,-3.48 -2.363,-5.715 v -7.906 c 0,-2.234 0.787,-4.139 2.363,-5.715 1.574,-1.575 3.48,-2.363 5.715,-2.363 2.148,0 4.061,0.788 5.736,2.363 1.59,1.49 2.385,3.395 2.385,5.715 v 2.02 l -12.762,5.674 c 0,1.36 0.451,2.502 1.354,3.426 0.901,0.921 2.04,1.383 3.415,1.383 z m -0.258,-17.102 c -1.203,0 -2.256,0.451 -3.158,1.354 -0.902,0.903 -1.354,1.984 -1.354,3.244 0,0.029 0,0.051 0,0.064 v 3.867 l 9.303,-4.137 c -0.072,-1.205 -0.523,-2.218 -1.354,-3.036 -0.918,-0.904 -2.062,-1.356 -3.437,-1.356 z"
         inkscape:connector-curvature="0"
         style="fill:#000000;fill-opacity:1" />
    </g>
    <g
       id="g3859"
       enable-background="new    "
       transform="matrix(0.3277233,0,0,0.3277233,-150.31597,211.23646)"
       style="fill:#000000;fill-opacity:1;stroke:#000000;stroke-opacity:1">
      <path
         id="path3861"
         d="m 216.036,428.284 c 0,-2.234 0.788,-4.139 2.363,-5.715 1.575,-1.575 3.48,-2.363 5.715,-2.363 2.235,0 4.146,0.788 5.736,2.363 1.59,1.576 2.385,3.48 2.385,5.715 v 7.906 c 0,2.234 -0.795,4.14 -2.385,5.715 -1.59,1.576 -3.502,2.363 -5.736,2.363 -2.234,0 -4.14,-0.787 -5.715,-2.363 -1.576,-1.575 -2.363,-3.48 -2.363,-5.715 v -7.906 z m 3.437,7.842 c 0,1.318 0.479,2.421 1.439,3.309 0.974,0.902 2.084,1.354 3.33,1.354 1.203,0 2.263,-0.451 3.18,-1.354 0.888,-0.873 1.346,-1.977 1.375,-3.309 v -7.777 c -0.029,-1.332 -0.487,-2.435 -1.375,-3.309 -0.917,-0.902 -2.062,-1.354 -3.438,-1.354 -1.203,0 -2.256,0.451 -3.158,1.354 -0.888,0.889 -1.339,1.948 -1.354,3.18 v 0.129 7.777 z"
         inkscape:connector-curvature="0"
         style="fill:#000000;fill-opacity:1;stroke:#000000;stroke-opacity:1" />
      <path
         id="path3863"
         d="m 238.543,452.669 v -24.385 c 0,-2.234 0.795,-4.139 2.385,-5.715 1.59,-1.575 3.502,-2.363 5.736,-2.363 2.234,0 4.139,0.788 5.715,2.363 1.575,1.576 2.363,3.48 2.363,5.715 v 7.906 c 0,2.234 -0.788,4.14 -2.363,5.715 -1.576,1.576 -3.48,2.363 -5.715,2.363 -1.762,0 -3.323,-0.486 -4.684,-1.461 v 8.357 l -3.437,1.505 z m 3.437,-16.543 c 0,1.318 0.479,2.421 1.439,3.309 0.974,0.902 2.084,1.354 3.33,1.354 1.203,0 2.263,-0.451 3.18,-1.354 0.888,-0.873 1.346,-1.977 1.375,-3.309 v -7.777 c -0.029,-1.332 -0.487,-2.435 -1.375,-3.309 -0.917,-0.902 -2.062,-1.354 -3.438,-1.354 -1.203,0 -2.256,0.451 -3.158,1.354 -0.888,0.889 -1.339,1.948 -1.354,3.18 v 0.129 7.777 z"
         inkscape:connector-curvature="0"
         style="fill:#000000;fill-opacity:1;stroke:#000000;stroke-opacity:1" />
      <path
         id="path3865"
         d="m 269.257,440.788 c 1.203,0 2.263,-0.451 3.18,-1.354 0.888,-0.873 1.346,-1.977 1.375,-3.309 v -0.301 l 3.438,-1.525 v 1.891 c 0,2.006 -0.859,3.925 -2.578,5.758 -1.461,1.547 -3.309,2.32 -5.543,2.32 -2.234,0 -4.14,-0.787 -5.715,-2.363 -1.576,-1.575 -2.363,-3.48 -2.363,-5.715 v -7.906 c 0,-2.234 0.788,-4.139 2.363,-5.715 1.575,-1.575 3.48,-2.363 5.715,-2.363 2.148,0 4.061,0.788 5.736,2.363 1.59,1.49 2.385,3.395 2.385,5.715 v 2.02 l -12.762,5.674 c 0,1.36 0.451,2.502 1.354,3.426 0.901,0.922 2.04,1.384 3.415,1.384 z m -0.258,-17.102 c -1.203,0 -2.256,0.451 -3.158,1.354 -0.902,0.903 -1.354,1.984 -1.354,3.244 0,0.029 0,0.051 0,0.064 v 3.867 l 9.303,-4.137 c -0.072,-1.205 -0.523,-2.218 -1.354,-3.036 -0.916,-0.904 -2.062,-1.356 -3.437,-1.356 z"
         inkscape:connector-curvature="0"
         style="fill:#000000;fill-opacity:1;stroke:#000000;stroke-opacity:1" />
      <path
         id="path3867"
         d="m 283.557,444.268 v -15.984 c 0,-2.234 0.788,-4.139 2.363,-5.715 1.575,-1.575 3.48,-2.363 5.715,-2.363 2.235,0 4.146,0.788 5.736,2.363 1.59,1.576 2.385,3.48 2.385,5.715 v 14.48 l -3.438,1.504 v -15.92 c -0.029,-1.332 -0.487,-2.435 -1.375,-3.309 -0.917,-0.902 -1.998,-1.354 -3.244,-1.354 -1.289,0 -2.399,0.459 -3.33,1.375 -0.917,0.889 -1.375,1.963 -1.375,3.223 0,0.029 0,0.051 0,0.064 v 14.416 l -3.437,1.505 z"
         inkscape:connector-curvature="0"
         style="fill:#000000;fill-opacity:1;stroke:#000000;stroke-opacity:1" />
    </g>
    <g
       id="g3869"
       enable-background="new    "
       transform="matrix(0.3277233,0,0,0.3277233,-150.31597,211.23646)"
       style="fill:#000000;fill-opacity:1;stroke:#000000;stroke-opacity:1">
      <path
         id="path3871"
         d="m 216.036,428.284 c 0,-2.234 0.788,-4.139 2.363,-5.715 1.575,-1.575 3.48,-2.363 5.715,-2.363 2.235,0 4.146,0.788 5.736,2.363 1.59,1.576 2.385,3.48 2.385,5.715 v 7.906 c 0,2.234 -0.795,4.14 -2.385,5.715 -1.59,1.576 -3.502,2.363 -5.736,2.363 -2.234,0 -4.14,-0.787 -5.715,-2.363 -1.576,-1.575 -2.363,-3.48 -2.363,-5.715 v -7.906 z m 3.437,7.842 c 0,1.318 0.479,2.421 1.439,3.309 0.974,0.902 2.084,1.354 3.33,1.354 1.203,0 2.263,-0.451 3.18,-1.354 0.888,-0.873 1.346,-1.977 1.375,-3.309 v -7.777 c -0.029,-1.332 -0.487,-2.435 -1.375,-3.309 -0.917,-0.902 -2.062,-1.354 -3.438,-1.354 -1.203,0 -2.256,0.451 -3.158,1.354 -0.888,0.889 -1.339,1.948 -1.354,3.18 v 0.129 7.777 z"
         inkscape:connector-curvature="0"
         style="fill:#000000;fill-opacity:1;stroke:#000000;stroke-width:1.39999998;stroke-opacity:1" />
      <path
         id="path3873"
         d="m 238.543,452.669 v -24.385 c 0,-2.234 0.795,-4.139 2.385,-5.715 1.59,-1.575 3.502,-2.363 5.736,-2.363 2.234,0 4.139,0.788 5.715,2.363 1.575,1.576 2.363,3.48 2.363,5.715 v 7.906 c 0,2.234 -0.788,4.14 -2.363,5.715 -1.576,1.576 -3.48,2.363 -5.715,2.363 -1.762,0 -3.323,-0.486 -4.684,-1.461 v 8.357 l -3.437,1.505 z m 3.437,-16.543 c 0,1.318 0.479,2.421 1.439,3.309 0.974,0.902 2.084,1.354 3.33,1.354 1.203,0 2.263,-0.451 3.18,-1.354 0.888,-0.873 1.346,-1.977 1.375,-3.309 v -7.777 c -0.029,-1.332 -0.487,-2.435 -1.375,-3.309 -0.917,-0.902 -2.062,-1.354 -3.438,-1.354 -1.203,0 -2.256,0.451 -3.158,1.354 -0.888,0.889 -1.339,1.948 -1.354,3.18 v 0.129 7.777 z"
         inkscape:connector-curvature="0"
         style="fill:#000000;fill-opacity:1;stroke:#000000;stroke-width:1.39999998;stroke-opacity:1" />
      <path
         id="path3875"
         d="m 269.257,440.788 c 1.203,0 2.263,-0.451 3.18,-1.354 0.888,-0.873 1.346,-1.977 1.375,-3.309 v -0.301 l 3.438,-1.525 v 1.891 c 0,2.006 -0.859,3.925 -2.578,5.758 -1.461,1.547 -3.309,2.32 -5.543,2.32 -2.234,0 -4.14,-0.787 -5.715,-2.363 -1.576,-1.575 -2.363,-3.48 -2.363,-5.715 v -7.906 c 0,-2.234 0.788,-4.139 2.363,-5.715 1.575,-1.575 3.48,-2.363 5.715,-2.363 2.148,0 4.061,0.788 5.736,2.363 1.59,1.49 2.385,3.395 2.385,5.715 v 2.02 l -12.762,5.674 c 0,1.36 0.451,2.502 1.354,3.426 0.901,0.922 2.04,1.384 3.415,1.384 z m -0.258,-17.102 c -1.203,0 -2.256,0.451 -3.158,1.354 -0.902,0.903 -1.354,1.984 -1.354,3.244 0,0.029 0,0.051 0,0.064 v 3.867 l 9.303,-4.137 c -0.072,-1.205 -0.523,-2.218 -1.354,-3.036 -0.916,-0.904 -2.062,-1.356 -3.437,-1.356 z"
         inkscape:connector-curvature="0"
         style="fill:#000000;fill-opacity:1;stroke:#000000;stroke-width:1.39999998;stroke-opacity:1" />
      <path
         id="path3877"
         d="m 283.557,444.268 v -15.984 c 0,-2.234 0.788,-4.139 2.363,-5.715 1.575,-1.575 3.48,-2.363 5.715,-2.363 2.235,0 4.146,0.788 5.736,2.363 1.59,1.576 2.385,3.48 2.385,5.715 v 14.48 l -3.438,1.504 v -15.92 c -0.029,-1.332 -0.487,-2.435 -1.375,-3.309 -0.917,-0.902 -1.998,-1.354 -3.244,-1.354 -1.289,0 -2.399,0.459 -3.33,1.375 -0.917,0.889 -1.375,1.963 -1.375,3.223 0,0.029 0,0.051 0,0.064 v 14.416 l -3.437,1.505 z"
         inkscape:connector-curvature="0"
         style="fill:#000000;fill-opacity:1;stroke:#000000;stroke-width:1.39999998;stroke-opacity:1" />
    </g>
    <path
       inkscape:export-ydpi="48.18"
       inkscape:export-xdpi="48.18"
       inkscape:export-filename="/home/rafael/workspace/logo-osi/3/png/logo396x412.png"
       id="path3773"
       d="m 82.37027,316.8646 m 3.060034,7.9712 a 8.5381601,8.5381601 0 1 0 -6.120112,0 l -5.75129,14.98618 a 24.5899,24.5899 0 1 1 17.622736,0 z"
       inkscape:connector-curvature="0"
       style="text-anchor:middle;fill:none;stroke:#000000;stroke-width:2.04915833;stroke-linejoin:round;stroke-opacity:1;display:inline" />
    <g
       id="g3075">
      <g
         id="text7890-3-1"
         style="font-size:10.2834959px;font-style:normal;font-weight:normal;line-height:125%;letter-spacing:0px;word-spacing:0px;fill:#000000;fill-opacity:1;stroke:none;display:inline;font-family:Sans;-inkscape-font-specification:Sans"
         transform="scale(0.99041193,1.0096809)">
        <path
           id="path3046"
           style="font-size:9.76931858px;font-variant:normal;font-stretch:normal;fill:#000000;font-family:OpenSymbol;-inkscape-font-specification:Sans"
           d="m 54.78404,341.79973 c -0.47066,10e-6 -0.842733,0.18446 -1.116221,0.55334 -0.273491,0.36572 -0.410236,0.86818 -0.410235,1.50738 -1e-6,0.63921 0.135154,1.14325 0.405465,1.51215 0.273488,0.36571 0.647151,0.54857 1.120991,0.54857 0.467474,0 0.837957,-0.18445 1.111451,-0.55335 0.273486,-0.36889 0.410231,-0.87134 0.410235,-1.50737 -4e-6,-0.63284 -0.136749,-1.13371 -0.410235,-1.50261 -0.273494,-0.37206 -0.643977,-0.5581 -1.111451,-0.55811 m 0,-0.74414 c 0.763224,0 1.362676,0.24805 1.798356,0.74414 0.435671,0.49611 0.653509,1.18301 0.653514,2.06072 -5e-6,0.87453 -0.217843,1.56144 -0.653514,2.06072 -0.43568,0.49609 -1.035132,0.74414 -1.798356,0.74414 -0.76641,0 -1.367452,-0.24805 -1.803126,-0.74414 -0.432497,-0.49928 -0.648744,-1.18619 -0.648744,-2.06072 0,-0.87771 0.216247,-1.56461 0.648744,-2.06072 0.435674,-0.49609 1.036716,-0.74414 1.803126,-0.74414" />
        <path
           id="path3048"
           style="font-size:9.76931858px;font-variant:normal;font-stretch:normal;fill:#000000;font-family:OpenSymbol;-inkscape-font-specification:Sans"
           d="m 59.535134,345.72559 0,2.83348 -0.882482,0 0,-7.37469 0.882482,0 0,0.81093 c 0.184445,-0.31801 0.416594,-0.55333 0.696446,-0.70598 0.283028,-0.15583 0.62012,-0.23374 1.011277,-0.23374 0.64874,0 1.175049,0.25759 1.578928,0.77277 0.40705,0.51518 0.610577,1.19254 0.610582,2.03209 -5e-6,0.83955 -0.203532,1.51692 -0.610582,2.03209 -0.403879,0.51518 -0.930188,0.77277 -1.578928,0.77277 -0.391157,0 -0.728249,-0.0763 -1.011277,-0.22897 -0.279852,-0.15582 -0.512001,-0.39274 -0.696446,-0.71075 m 2.98613,-1.86514 c -5e-6,-0.64556 -0.13357,-1.1512 -0.400695,-1.51692 -0.263953,-0.36889 -0.628076,-0.55333 -1.09237,-0.55334 -0.4643,1e-5 -0.830013,0.18445 -1.09714,0.55334 -0.263952,0.36572 -0.395926,0.87136 -0.395925,1.51692 -10e-7,0.64557 0.131973,1.15279 0.395925,1.52169 0.267127,0.36571 0.63284,0.54857 1.09714,0.54857 0.464294,0 0.828417,-0.18286 1.09237,-0.54857 0.267125,-0.3689 0.40069,-0.87612 0.400695,-1.52169" />
        <path
           id="path3050"
           style="font-size:9.76931858px;font-variant:normal;font-stretch:normal;fill:#000000;font-family:OpenSymbol;-inkscape-font-specification:Sans"
           d="m 69.457099,343.63625 0,0.42932 -4.035568,0 c 0.03816,0.60422 0.219426,1.06534 0.543799,1.38335 0.32755,0.31483 0.782306,0.47225 1.364271,0.47225 0.337088,0 0.66305,-0.0414 0.977885,-0.12403 0.318007,-0.0827 0.632839,-0.20671 0.944495,-0.37207 l 0,0.83001 c -0.314836,0.13356 -0.637618,0.23533 -0.968345,0.30529 -0.330737,0.07 -0.666239,0.10494 -1.006507,0.10494 -0.852274,0 -1.528048,-0.24805 -2.027325,-0.74414 -0.496099,-0.4961 -0.744148,-1.16711 -0.744147,-2.01302 -10e-7,-0.87453 0.235328,-1.56779 0.705986,-2.07979 0.473835,-0.51518 1.111448,-0.77277 1.91284,-0.77277 0.718703,0 1.286353,0.23215 1.702953,0.69644 0.41977,0.46112 0.629657,1.0892 0.629663,1.88422 m -0.877713,-0.25759 c -0.0064,-0.48019 -0.141519,-0.8634 -0.405464,-1.14961 -0.260774,-0.28621 -0.607406,-0.42931 -1.039899,-0.42932 -0.48974,10e-6 -0.882484,0.13834 -1.178233,0.41501 -0.292572,0.27667 -0.461118,0.66624 -0.505638,1.16869 l 3.129234,-0.005" />
        <path
           id="path3052"
           style="font-size:9.76931858px;font-variant:normal;font-stretch:normal;fill:#000000;font-family:OpenSymbol;-inkscape-font-specification:Sans"
           d="m 75.338724,343.30234 0,3.22464 -0.877712,0 0,-3.19602 c -5e-6,-0.50563 -0.09859,-0.88407 -0.295751,-1.1353 -0.197172,-0.25123 -0.492922,-0.37684 -0.887253,-0.37685 -0.47384,1e-5 -0.847503,0.15106 -1.120991,0.45317 -0.273492,0.30212 -0.410237,0.71394 -0.410235,1.23548 l 0,3.01952 -0.882482,0 0,-5.3426 0.882482,0 0,0.83001 c 0.209886,-0.32119 0.456344,-0.56128 0.739377,-0.72029 0.286208,-0.159 0.61535,-0.23851 0.987426,-0.23851 0.613759,0 1.078055,0.19081 1.392891,0.57242 0.314827,0.37844 0.472242,0.93655 0.472248,1.67433" />
      </g>
      <path
         d="m 83.881853,344.47014 0,0.83804 c -0.245675,-0.12843 -0.500794,-0.22475 -0.765359,-0.28898 -0.264571,-0.0642 -0.538589,-0.0963 -0.822053,-0.0963 -0.4315,10e-6 -0.755912,0.0674 -0.973234,0.20229 -0.214175,0.13486 -0.321263,0.33715 -0.321262,0.60686 -10e-7,0.20551 0.07716,0.36765 0.231498,0.48645 0.15433,0.1156 0.464568,0.22637 0.930714,0.33233 l 0.29764,0.0674 c 0.617323,0.13486 1.055121,0.32591 1.313394,0.57315 0.261414,0.24403 0.392124,0.58599 0.392129,1.02587 -5e-6,0.50091 -0.195282,0.89746 -0.585831,1.18965 -0.387407,0.29219 -0.921268,0.43828 -1.601584,0.43828 -0.283469,0 -0.579534,-0.0289 -0.888195,-0.0867 -0.305515,-0.0546 -0.628351,-0.13806 -0.96851,-0.25045 l 0,-0.9151 c 0.321261,0.17018 0.637798,0.29861 0.949612,0.3853 0.311812,0.0835 0.620475,0.12523 0.92599,0.12523 0.409449,0 0.724411,-0.0707 0.944888,-0.21192 0.22047,-0.1445 0.330707,-0.34678 0.330711,-0.60686 -4e-6,-0.24082 -0.08032,-0.42545 -0.240946,-0.55388 -0.157486,-0.12844 -0.505519,-0.25206 -1.044102,-0.37087 l -0.302363,-0.0723 c -0.538588,-0.11559 -0.927567,-0.29219 -1.166937,-0.5298 -0.239372,-0.24081 -0.359058,-0.56993 -0.359058,-0.98735 0,-0.50732 0.176379,-0.89905 0.529138,-1.17519 0.352756,-0.27613 0.853546,-0.4142 1.502371,-0.4142 0.321259,0 0.623622,0.024 0.907092,0.0723 0.283463,0.0482 0.544881,0.12041 0.784257,0.21674"
         style="font-size:9.76931858px;font-style:normal;font-variant:normal;font-weight:normal;font-stretch:normal;line-height:125%;letter-spacing:0px;word-spacing:0px;fill:#000000;fill-opacity:1;stroke:none;font-family:OpenSymbol;-inkscape-font-specification:Sans"
         id="path3026"
         inkscape:connector-curvature="0" />
      <path
         d="m 87.60471,344.93251 c -0.466147,0 -0.834652,0.18624 -1.105518,0.5587 -0.27087,0.36925 -0.406304,0.87657 -0.406302,1.52196 -2e-6,0.6454 0.133857,1.15432 0.401577,1.52679 0.270866,0.36925 0.640947,0.55388 1.110243,0.55388 0.462992,0 0.829923,-0.18624 1.100795,-0.5587 0.270862,-0.37247 0.406296,-0.87978 0.406301,-1.52197 -5e-6,-0.63897 -0.135439,-1.14469 -0.406301,-1.51715 -0.270872,-0.37567 -0.637803,-0.56351 -1.100795,-0.56351 m 0,-0.75135 c 0.755906,0 1.349611,0.25045 1.781114,0.75135 0.431493,0.5009 0.647242,1.19445 0.647248,2.08066 -6e-6,0.883 -0.215755,1.57656 -0.647248,2.08067 -0.431503,0.50089 -1.025208,0.75134 -1.781114,0.75134 -0.759061,0 -1.35434,-0.25045 -1.785837,-0.75134 -0.42835,-0.50411 -0.642525,-1.19767 -0.642524,-2.08067 -10e-7,-0.88621 0.214174,-1.57976 0.642524,-2.08066 0.431497,-0.5009 1.026776,-0.75135 1.785837,-0.75135"
         style="font-size:9.76931858px;font-style:normal;font-variant:normal;font-weight:normal;font-stretch:normal;line-height:125%;letter-spacing:0px;word-spacing:0px;fill:#000000;fill-opacity:1;stroke:none;font-family:OpenSymbol;-inkscape-font-specification:Sans"
         id="path3029"
         inkscape:connector-curvature="0" />
      <path
         d="m 91.379537,347.57668 0,-3.26549 0.869296,0 0,3.23178 c -2e-6,0.51053 0.09763,0.89423 0.292915,1.15111 0.195275,0.25366 0.488189,0.38049 0.878745,0.38049 0.469291,0 0.839373,-0.15252 1.110243,-0.45755 0.274014,-0.30504 0.411022,-0.72085 0.411027,-1.24744 l 0,-3.05839 0.869297,0 0,5.39432 -0.869297,0 0,-0.82841 c -0.211029,0.32751 -0.4567,0.57154 -0.737013,0.73209 -0.27717,0.15733 -0.600006,0.23599 -0.96851,0.23599 -0.607879,0 -1.069299,-0.19264 -1.38426,-0.57796 -0.314964,-0.3853 -0.472444,-0.94882 -0.472443,-1.69054 m 2.187415,-3.39552 0,0"
         style="font-size:9.76931858px;font-style:normal;font-variant:normal;font-weight:normal;font-stretch:normal;line-height:125%;letter-spacing:0px;word-spacing:0px;fill:#000000;fill-opacity:1;stroke:none;font-family:OpenSymbol;-inkscape-font-specification:Sans"
         id="path3031"
         inkscape:connector-curvature="0" />
      <path
         d="m 100.67723,345.13961 c -0.0976,-0.0578 -0.20472,-0.0996 -0.32127,-0.12522 -0.11338,-0.0289 -0.23937,-0.0433 -0.377946,-0.0433 -0.491344,0 -0.869295,0.16376 -1.133864,0.49126 -0.261422,0.32431 -0.39213,0.7915 -0.392129,1.40157 l 0,2.84164 -0.874021,0 0,-5.39432 0.874021,0 0,0.83805 c 0.182676,-0.3275 0.420473,-0.56993 0.713389,-0.72726 0.292915,-0.16054 0.648819,-0.24082 1.06772,-0.24082 0.0598,0 0.12598,0.005 0.19843,0.0144 0.0724,0.006 0.15275,0.0177 0.24095,0.0337 l 0.005,0.91029"
         style="font-size:9.76931858px;font-style:normal;font-variant:normal;font-weight:normal;font-stretch:normal;line-height:125%;letter-spacing:0px;word-spacing:0px;fill:#000000;fill-opacity:1;stroke:none;font-family:OpenSymbol;-inkscape-font-specification:Sans"
         id="path3033"
         inkscape:connector-curvature="0" />
      <path
         d="m 105.19851,344.5183 0,0.82841 c -0.24567,-0.13806 -0.49291,-0.24081 -0.74172,-0.30824 -0.24569,-0.0707 -0.49451,-0.10596 -0.74647,-0.10596 -0.56379,0 -1.00158,0.18302 -1.31339,0.54905 -0.31181,0.36284 -0.46773,0.87338 -0.46773,1.53161 0,0.65824 0.15592,1.17037 0.46773,1.53642 0.31181,0.36283 0.7496,0.54425 1.31339,0.54425 0.25196,0 0.50078,-0.0337 0.74647,-0.10115 0.24881,-0.0707 0.49605,-0.17499 0.74172,-0.31306 l 0,0.81878 c -0.24252,0.1156 -0.49449,0.20229 -0.7559,0.26008 -0.25828,0.0578 -0.53387,0.0867 -0.82678,0.0867 -0.79686,0 -1.42993,-0.25526 -1.89923,-0.76579 -0.46928,-0.51053 -0.70393,-1.19928 -0.70393,-2.06622 0,-0.87979 0.23622,-1.57173 0.70866,-2.07584 0.47559,-0.50412 1.12599,-0.75617 1.9512,-0.75617 0.26771,0 0.52913,0.0289 0.78426,0.0867 0.25511,0.0546 0.50235,0.13807 0.74172,0.25045"
         style="font-size:9.76931858px;font-style:normal;font-variant:normal;font-weight:normal;font-stretch:normal;line-height:125%;letter-spacing:0px;word-spacing:0px;fill:#000000;fill-opacity:1;stroke:none;font-family:OpenSymbol;-inkscape-font-specification:Sans"
         id="path3035"
         inkscape:connector-curvature="0" />
      <path
         d="m 111.2458,346.7868 0,0.43348 -3.99688,0 c 0.0378,0.61006 0.21733,1.07565 0.53859,1.39674 0.32441,0.31788 0.77481,0.47682 1.35119,0.47682 0.33386,0 0.65669,-0.0417 0.96851,-0.12523 0.31496,-0.0835 0.62677,-0.2087 0.93544,-0.37567 l 0,0.83804 c -0.31182,0.13485 -0.63151,0.23761 -0.95906,0.30825 -0.32757,0.0707 -0.65985,0.10595 -0.99686,0.10595 -0.84411,0 -1.5134,-0.25045 -2.00789,-0.75134 -0.49134,-0.5009 -0.737,-1.1784 -0.737,-2.03251 0,-0.88299 0.23306,-1.58297 0.69921,-2.09992 0.46929,-0.52017 1.10079,-0.78025 1.8945,-0.78025 0.71182,0 1.27402,0.23439 1.68663,0.70318 0.41574,0.46558 0.62361,1.09974 0.62362,1.90246 m -0.86929,-0.26008 c -0.006,-0.48484 -0.14017,-0.87175 -0.40159,-1.16074 -0.25826,-0.28898 -0.60157,-0.43347 -1.02992,-0.43347 -0.48505,0 -0.87402,0.13967 -1.16694,0.41902 -0.28976,0.27935 -0.4567,0.67269 -0.50079,1.18 l 3.09924,-0.005"
         style="font-size:9.76931858px;font-style:normal;font-variant:normal;font-weight:normal;font-stretch:normal;line-height:125%;letter-spacing:0px;word-spacing:0px;fill:#000000;fill-opacity:1;stroke:none;font-family:OpenSymbol;-inkscape-font-specification:Sans"
         id="path3037"
         inkscape:connector-curvature="0" />
      <g
         id="text7890-3-1-1-4"
         style="font-size:10.2834959px;font-style:normal;font-weight:normal;line-height:125%;letter-spacing:0px;word-spacing:0px;fill:#000000;fill-opacity:1;stroke:none;display:inline;font-family:Sans;-inkscape-font-specification:Sans"
         transform="scale(0.99041193,1.0096809)">
        <path
           id="path3055"
           style="font-size:9.76931858px;font-variant:normal;font-stretch:normal;fill:#000000;font-family:OpenSymbol;-inkscape-font-specification:Sans"
           d="m 62.236764,350.76531 0.877712,0 0,5.3426 -0.877712,0 0,-5.3426 m 0,-2.07979 0.877712,0 0,1.11145 -0.877712,0 0,-1.11145" />
        <path
           id="path3057"
           style="font-size:9.76931858px;font-variant:normal;font-stretch:normal;fill:#000000;font-family:OpenSymbol;-inkscape-font-specification:Sans"
           d="m 69.387256,352.88327 0,3.22464 -0.877712,0 0,-3.19602 c -4e-6,-0.50563 -0.09859,-0.88407 -0.295751,-1.1353 -0.197171,-0.25122 -0.492921,-0.37684 -0.887252,-0.37684 -0.47384,0 -0.847504,0.15106 -1.120991,0.45316 -0.273492,0.30212 -0.410237,0.71394 -0.410235,1.23548 l 0,3.01952 -0.882483,0 0,-5.3426 0.882483,0 0,0.83001 c 0.209885,-0.32118 0.456344,-0.56128 0.739377,-0.72029 0.286207,-0.159 0.615349,-0.23851 0.987426,-0.23851 0.613758,0 1.078055,0.19081 1.392891,0.57242 0.314827,0.37844 0.472242,0.93655 0.472247,1.67433" />
        <path
           id="path3059"
           style="font-size:9.76931858px;font-variant:normal;font-stretch:normal;fill:#000000;font-family:OpenSymbol;-inkscape-font-specification:Sans"
           d="m 71.147451,350.76531 0.877713,0 0,5.3426 -0.877713,0 0,-5.3426 m 0,-2.07979 0.877713,0 0,1.11145 -0.877713,0 0,-1.11145" />
        <path
           id="path3061"
           style="font-size:9.76931858px;font-variant:normal;font-stretch:normal;fill:#000000;font-family:OpenSymbol;-inkscape-font-specification:Sans"
           d="m 74.725083,349.2484 0,1.51691 1.807896,0 0,0.68214 -1.807896,0 0,2.90027 c -2e-6,0.43567 0.05883,0.71552 0.176496,0.83955 0.120842,0.12402 0.364121,0.18603 0.729837,0.18603 l 0.901563,0 0,0.73461 -0.901563,0 c -0.677367,0 -1.144844,-0.12561 -1.402432,-0.37684 -0.25759,-0.25441 -0.386385,-0.71553 -0.386384,-1.38335 l 0,-2.90027 -0.643973,0 0,-0.68214 0.643973,0 0,-1.51691 0.882483,0" />
        <path
           id="path3063"
           style="font-size:9.76931858px;font-variant:normal;font-stretch:normal;fill:#000000;font-family:OpenSymbol;-inkscape-font-specification:Sans"
           d="m 77.692132,350.76531 0.877712,0 0,5.3426 -0.877712,0 0,-5.3426 m 0,-2.07979 0.877712,0 0,1.11145 -0.877712,0 0,-1.11145" />
        <path
           id="path3065"
           style="font-size:9.76931858px;font-variant:normal;font-stretch:normal;fill:#000000;font-family:OpenSymbol;-inkscape-font-specification:Sans"
           d="m 82.82961,353.4223 c -0.709168,0 -1.200496,0.0811 -1.473984,0.24328 -0.273491,0.16219 -0.410236,0.43886 -0.410235,0.83001 -10e-7,0.31165 0.101762,0.5597 0.305291,0.74415 0.206706,0.18127 0.486556,0.2719 0.839551,0.2719 0.486555,0 0.876119,-0.17173 1.168693,-0.51518 0.295747,-0.34663 0.443622,-0.80616 0.443626,-1.37858 l 0,-0.19558 -0.872942,0 m 1.750655,-0.36253 0,3.04814 -0.877713,0 0,-0.81093 c -0.200351,0.32437 -0.44999,0.56447 -0.748917,0.7203 -0.298934,0.15264 -0.664647,0.22897 -1.09714,0.22897 -0.546982,0 -0.982658,-0.15265 -1.307028,-0.45794 -0.321193,-0.30847 -0.481789,-0.7203 -0.481788,-1.23548 -10e-7,-0.60104 0.200347,-1.0542 0.601042,-1.3595 0.403873,-0.30528 1.004915,-0.45793 1.803126,-0.45793 l 1.230705,0 0,-0.0859 c -4e-6,-0.40387 -0.133569,-0.71552 -0.400694,-0.93495 -0.263954,-0.2226 -0.636027,-0.33391 -1.116221,-0.33391 -0.305294,0 -0.602634,0.0366 -0.892023,0.10971 -0.289392,0.0731 -0.567652,0.18286 -0.834781,0.32914 l 0,-0.81093 c 0.321191,-0.12402 0.632842,-0.21624 0.934955,-0.27667 0.302109,-0.0636 0.596269,-0.0954 0.882482,-0.0954 0.772765,0 1.349956,0.20035 1.731574,0.60104 0.381609,0.4007 0.572416,1.0081 0.572421,1.82221" />
        <path
           id="path3067"
           style="font-size:9.76931858px;font-variant:normal;font-stretch:normal;fill:#000000;font-family:OpenSymbol;-inkscape-font-specification:Sans"
           d="m 87.261102,349.2484 0,1.51691 1.807896,0 0,0.68214 -1.807896,0 0,2.90027 c -2e-6,0.43567 0.05883,0.71552 0.176496,0.83955 0.120843,0.12402 0.364121,0.18603 0.729837,0.18603 l 0.901563,0 0,0.73461 -0.901563,0 c -0.677367,0 -1.144843,-0.12561 -1.402431,-0.37684 -0.257591,-0.25441 -0.386385,-0.71553 -0.386385,-1.38335 l 0,-2.90027 -0.643973,0 0,-0.68214 0.643973,0 0,-1.51691 0.882483,0" />
        <path
           id="path3069"
           style="font-size:9.76931858px;font-variant:normal;font-stretch:normal;fill:#000000;font-family:OpenSymbol;-inkscape-font-specification:Sans"
           d="m 90.228152,350.76531 0.877712,0 0,5.3426 -0.877712,0 0,-5.3426 m 0,-2.07979 0.877712,0 0,1.11145 -0.877712,0 0,-1.11145" />
        <path
           id="path3071"
           style="font-size:9.76931858px;font-variant:normal;font-stretch:normal;fill:#000000;font-family:OpenSymbol;-inkscape-font-specification:Sans"
           d="m 92.307948,350.76531 0.930185,0 1.669561,4.48397 1.669561,-4.48397 0.930184,0 -2.003473,5.3426 -1.192544,0 -2.003474,-5.3426" />
        <path
           id="path3073"
           style="font-size:9.76931858px;font-variant:normal;font-stretch:normal;fill:#000000;font-family:OpenSymbol;-inkscape-font-specification:Sans"
           d="m 103.28889,353.21718 0,0.42932 -4.035567,0 c 0.03816,0.60422 0.219427,1.06534 0.5438,1.38335 0.327547,0.31483 0.782307,0.47225 1.364267,0.47225 0.33709,0 0.66305,-0.0413 0.97789,-0.12403 0.31801,-0.0827 0.63284,-0.2067 0.94449,-0.37207 l 0,0.83001 c -0.31483,0.13357 -0.63761,0.23533 -0.96834,0.30529 -0.33074,0.07 -0.66624,0.10495 -1.00651,0.10495 -0.85227,0 -1.528046,-0.24805 -2.027323,-0.74415 -0.496099,-0.4961 -0.744148,-1.1671 -0.744147,-2.01302 -10e-7,-0.87452 0.235328,-1.56779 0.705986,-2.07979 0.473835,-0.51518 1.111444,-0.77277 1.912844,-0.77277 0.7187,0 1.28635,0.23215 1.70295,0.69644 0.41977,0.46113 0.62966,1.0892 0.62966,1.88422 m -0.87771,-0.25759 c -0.006,-0.48019 -0.14152,-0.86339 -0.40547,-1.14961 -0.26077,-0.2862 -0.6074,-0.42931 -1.03989,-0.42931 -0.48974,0 -0.88249,0.13834 -1.178237,0.415 -0.292572,0.27668 -0.461118,0.66624 -0.505639,1.16869 l 3.129236,-0.005" />
      </g>
    </g>
    <path
       sodipodi:type="arc"
       style="fill:none;stroke:#000000;stroke-width:6.66513872;stroke-miterlimit:4;stroke-opacity:1;stroke-dasharray:none"
       id="path3015"
       sodipodi:cx="645.71429"
       sodipodi:cy="646.64789"
       sodipodi:rx="23.571428"
       sodipodi:ry="23.571411"
       d="m 669.28572,646.64789 c 0,13.01813 -10.55329,23.57141 -23.57143,23.57141 -13.01814,0 -23.57142,-10.55328 -23.57142,-23.57141 0,-13.01813 10.55328,-23.57141 23.57142,-23.57141 13.01814,0 23.57143,10.55328 23.57143,23.57141 z"
       transform="matrix(0.09423973,0,0,0.09407347,44.378785,277.83857)" />
    <text
       xml:space="preserve"
       style="font-size:3.51676369px;font-style:normal;font-variant:normal;font-weight:bold;font-stretch:normal;line-height:125%;letter-spacing:0px;word-spacing:0px;fill:#000000;fill-opacity:1;stroke:none;font-family:OpenSymbol;-inkscape-font-specification:OpenSymbol Bold"
       x="103.91553"
       y="339.82089"
       id="text3793"
       sodipodi:linespacing="125%"><tspan
         sodipodi:role="line"
         id="tspan3795"
         x="103.91553"
         y="339.82089">R</tspan></text>
  </g>
</svg>
