<?xml version="1.0" encoding="UTF-8" standalone="no"?>
<svg
   xmlns="http://www.w3.org/2000/svg"
   version="1.1"
   width="25"
   height="25">
  <g
     transform="translate(-44.642857,-197.00504)"
     id="layer1">
    <path
       d="m 46.642857,197.00504 0,2 -2,0 c 0,-0.58868 0,-0.58868 0,0 0,6.0197 0,17.06441 0,21 l 2,0 0,2 c 4.526476,0 14.538094,0 21,0 l 0,-2 2,0 c 0,-4.34952 0,-14.58533 0,-21 l -2,0 0,-2 c -4.587113,0 -15.5058,0 -21,0 z m 0.96875,8.8125 19.09375,0 0,4.40625 -1.46875,0 0,1.46875 -1.46875,0 0,1.46875 -13.21875,0 0,-1.46875 -1.46875,0 0,-1.46875 -1.46875,0 z m 2.9375,1.46875 0,1.46875 1.46875,0 0,-1.46875 z m 2.9375,0 0,1.46875 1.46875,0 0,-1.46875 z m 2.9375,0 0,1.46875 1.46875,0 0,-1.46875 z m 2.9375,0 0,1.46875 1.46875,0 0,-1.46875 z m 2.9375,0 0,1.46875 1.46875,0 0,-1.46875 z m -10.28125,2.9375 0,1.46875 1.46875,0 0,-1.46875 z m 2.9375,0 0,1.46875 1.46875,0 0,-1.46875 z m 2.9375,0 0,1.46875 1.46875,0 0,-1.46875 z m 2.9375,0 0,1.46875 1.46875,0 0,-1.46875 z"
       id="path3019"
       style="fill:#000000;fill-opacity:1;stroke:none" />
  </g>
</svg>
